ISO-10303-21;
HEADER;
/* Generated by software containing ST-Developer
 * from STEP Tools, Inc. (www.steptools.com) 
 */

FILE_DESCRIPTION(
/* description */ ('foot'),
/* implementation_level */ '2;1');

FILE_NAME(
/* name */ 'foot.step',
/* time_stamp */ '2026-09-20T18:50:07+09:00',
/* author */ (''),
/* organization */ (''),
/* preprocessor_version */ 'ST-DEVELOPER v20.2',
/* originating_system */ 'Autodesk Translation Framework v15.15.0.0',
/* authorisation */ '');

FILE_SCHEMA (('AUTOMOTIVE_DESIGN { 1 0 10303 214 3 1 1 }'));
ENDSEC;

DATA;
#10=MECHANICAL_DESIGN_GEOMETRIC_PRESENTATION_REPRESENTATION('',(#13),#1260);
#11=SHAPE_REPRESENTATION_RELATIONSHIP('SRR','None',#1267,#12);
#12=ADVANCED_BREP_SHAPE_REPRESENTATION('',(#14),#1259);
#13=STYLED_ITEM('',(#1277),#14);
#14=MANIFOLD_SOLID_BREP('\X2\30DC30C730A3\X0\1',#670);
#15=FACE_BOUND('',#103,.T.);
#16=FACE_BOUND('',#104,.T.);
#17=FACE_BOUND('',#105,.T.);
#18=FACE_BOUND('',#106,.T.);
#19=FACE_BOUND('',#107,.T.);
#20=FACE_BOUND('',#117,.T.);
#21=FACE_BOUND('',#118,.T.);
#22=FACE_BOUND('',#119,.T.);
#23=FACE_BOUND('',#120,.T.);
#24=FACE_BOUND('',#121,.T.);
#25=FACE_BOUND('',#123,.T.);
#26=FACE_BOUND('',#124,.T.);
#27=FACE_BOUND('',#125,.T.);
#28=FACE_BOUND('',#126,.T.);
#29=FACE_BOUND('',#127,.T.);
#30=FACE_BOUND('',#135,.T.);
#31=FACE_BOUND('',#136,.T.);
#32=FACE_BOUND('',#137,.T.);
#33=FACE_BOUND('',#138,.T.);
#34=FACE_BOUND('',#139,.T.);
#35=(
BOUNDED_SURFACE()
B_SPLINE_SURFACE(1,2,((#1071,#1072,#1073),(#1074,#1075,#1076)),
 .UNSPECIFIED.,.F.,.F.,.F.)
B_SPLINE_SURFACE_WITH_KNOTS((2,2),(3,3),(-9.14096726625666E-15,0.573023155453409),
(0.895664793857905,2.245927859732),.UNSPECIFIED.)
GEOMETRIC_REPRESENTATION_ITEM()
RATIONAL_B_SPLINE_SURFACE(((1.,0.78062474979979,1.),(1.,0.78062474979979,
1.)))
REPRESENTATION_ITEM('')
SURFACE()
);
#36=B_SPLINE_SURFACE_WITH_KNOTS('',3,3,((#999,#1000,#1001,#1002),(#1003,
#1004,#1005,#1006),(#1007,#1008,#1009,#1010),(#1011,#1012,#1013,#1014),
(#1015,#1016,#1017,#1018),(#1019,#1020,#1021,#1022),(#1023,#1024,#1025,
#1026)),.UNSPECIFIED.,.F.,.F.,.F.,(4,1,1,1,4),(4,4),(0.,0.285714285714286,
0.571428571428571,0.714285714285714,1.),(3.92039085514683,4.81831697215211),
 .UNSPECIFIED.);
#37=B_SPLINE_SURFACE_WITH_KNOTS('',3,3,((#1089,#1090,#1091,#1092),(#1093,
#1094,#1095,#1096),(#1097,#1098,#1099,#1100),(#1101,#1102,#1103,#1104),
(#1105,#1106,#1107,#1108),(#1109,#1110,#1111,#1112),(#1113,#1114,#1115,
#1116)),.UNSPECIFIED.,.F.,.F.,.F.,(4,1,1,1,4),(4,4),(0.,0.285714285714286,
0.571428571428571,0.714285714285714,1.),(18.0540499162223,18.9525591253587),
 .UNSPECIFIED.);
#38=ELLIPSE('',#692,52.7062185235935,23.7177550184547);
#39=ELLIPSE('',#693,52.7062185235908,23.717755018456);
#40=ELLIPSE('',#694,32.,25.50338530549);
#41=PLANE('',#687);
#42=PLANE('',#691);
#43=PLANE('',#696);
#44=PLANE('',#698);
#45=PLANE('',#700);
#46=PLANE('',#701);
#47=PLANE('',#703);
#48=PLANE('',#704);
#49=PLANE('',#711);
#50=PLANE('',#715);
#51=PLANE('',#731);
#52=PLANE('',#732);
#53=PLANE('',#745);
#54=PLANE('',#746);
#55=PLANE('',#747);
#56=FACE_OUTER_BOUND('',#89,.T.);
#57=FACE_OUTER_BOUND('',#90,.T.);
#58=FACE_OUTER_BOUND('',#91,.T.);
#59=FACE_OUTER_BOUND('',#92,.T.);
#60=FACE_OUTER_BOUND('',#93,.T.);
#61=FACE_OUTER_BOUND('',#94,.T.);
#62=FACE_OUTER_BOUND('',#95,.T.);
#63=FACE_OUTER_BOUND('',#96,.T.);
#64=FACE_OUTER_BOUND('',#97,.T.);
#65=FACE_OUTER_BOUND('',#98,.T.);
#66=FACE_OUTER_BOUND('',#99,.T.);
#67=FACE_OUTER_BOUND('',#100,.T.);
#68=FACE_OUTER_BOUND('',#101,.T.);
#69=FACE_OUTER_BOUND('',#102,.T.);
#70=FACE_OUTER_BOUND('',#108,.T.);
#71=FACE_OUTER_BOUND('',#109,.T.);
#72=FACE_OUTER_BOUND('',#110,.T.);
#73=FACE_OUTER_BOUND('',#111,.T.);
#74=FACE_OUTER_BOUND('',#112,.T.);
#75=FACE_OUTER_BOUND('',#113,.T.);
#76=FACE_OUTER_BOUND('',#114,.T.);
#77=FACE_OUTER_BOUND('',#115,.T.);
#78=FACE_OUTER_BOUND('',#116,.T.);
#79=FACE_OUTER_BOUND('',#122,.T.);
#80=FACE_OUTER_BOUND('',#128,.T.);
#81=FACE_OUTER_BOUND('',#129,.T.);
#82=FACE_OUTER_BOUND('',#130,.T.);
#83=FACE_OUTER_BOUND('',#131,.T.);
#84=FACE_OUTER_BOUND('',#132,.T.);
#85=FACE_OUTER_BOUND('',#133,.T.);
#86=FACE_OUTER_BOUND('',#134,.T.);
#87=FACE_OUTER_BOUND('',#140,.T.);
#88=FACE_OUTER_BOUND('',#141,.T.);
#89=EDGE_LOOP('',(#436,#437,#438,#439,#440));
#90=EDGE_LOOP('',(#441,#442,#443,#444));
#91=EDGE_LOOP('',(#445,#446,#447,#448,#449));
#92=EDGE_LOOP('',(#450,#451,#452,#453,#454,#455,#456,#457,#458,#459));
#93=EDGE_LOOP('',(#460,#461,#462,#463));
#94=EDGE_LOOP('',(#464,#465,#466,#467,#468,#469,#470,#471,#472,#473));
#95=EDGE_LOOP('',(#474,#475,#476,#477));
#96=EDGE_LOOP('',(#478,#479,#480,#481,#482,#483,#484,#485));
#97=EDGE_LOOP('',(#486,#487,#488,#489));
#98=EDGE_LOOP('',(#490,#491,#492,#493,#494));
#99=EDGE_LOOP('',(#495,#496,#497,#498,#499));
#100=EDGE_LOOP('',(#500,#501,#502,#503));
#101=EDGE_LOOP('',(#504,#505,#506,#507));
#102=EDGE_LOOP('',(#508,#509,#510,#511,#512,#513,#514));
#103=EDGE_LOOP('',(#515));
#104=EDGE_LOOP('',(#516));
#105=EDGE_LOOP('',(#517));
#106=EDGE_LOOP('',(#518));
#107=EDGE_LOOP('',(#519));
#108=EDGE_LOOP('',(#520,#521,#522,#523));
#109=EDGE_LOOP('',(#524,#525,#526,#527));
#110=EDGE_LOOP('',(#528,#529,#530,#531));
#111=EDGE_LOOP('',(#532,#533,#534,#535));
#112=EDGE_LOOP('',(#536,#537,#538,#539));
#113=EDGE_LOOP('',(#540,#541,#542,#543));
#114=EDGE_LOOP('',(#544,#545,#546,#547));
#115=EDGE_LOOP('',(#548,#549,#550,#551));
#116=EDGE_LOOP('',(#552,#553,#554,#555,#556,#557));
#117=EDGE_LOOP('',(#558));
#118=EDGE_LOOP('',(#559));
#119=EDGE_LOOP('',(#560));
#120=EDGE_LOOP('',(#561));
#121=EDGE_LOOP('',(#562));
#122=EDGE_LOOP('',(#563,#564,#565,#566,#567));
#123=EDGE_LOOP('',(#568));
#124=EDGE_LOOP('',(#569));
#125=EDGE_LOOP('',(#570));
#126=EDGE_LOOP('',(#571));
#127=EDGE_LOOP('',(#572));
#128=EDGE_LOOP('',(#573,#574,#575,#576));
#129=EDGE_LOOP('',(#577,#578,#579,#580));
#130=EDGE_LOOP('',(#581,#582,#583,#584));
#131=EDGE_LOOP('',(#585,#586,#587,#588));
#132=EDGE_LOOP('',(#589,#590,#591,#592));
#133=EDGE_LOOP('',(#593,#594,#595,#596));
#134=EDGE_LOOP('',(#597,#598,#599,#600,#601,#602));
#135=EDGE_LOOP('',(#603));
#136=EDGE_LOOP('',(#604));
#137=EDGE_LOOP('',(#605));
#138=EDGE_LOOP('',(#606));
#139=EDGE_LOOP('',(#607));
#140=EDGE_LOOP('',(#608,#609,#610,#611,#612,#613,#614,#615,#616,#617));
#141=EDGE_LOOP('',(#618,#619,#620,#621));
#142=CIRCLE('',#685,3.);
#143=CIRCLE('',#686,3.);
#144=CIRCLE('',#689,3.);
#145=CIRCLE('',#690,3.);
#146=CIRCLE('',#695,32.);
#147=CIRCLE('',#697,32.);
#148=CIRCLE('',#699,32.);
#149=CIRCLE('',#705,9.);
#150=CIRCLE('',#706,1.);
#151=CIRCLE('',#707,1.);
#152=CIRCLE('',#708,1.);
#153=CIRCLE('',#709,1.);
#154=CIRCLE('',#710,3.);
#155=CIRCLE('',#713,9.);
#156=CIRCLE('',#714,9.);
#157=CIRCLE('',#717,1.);
#158=CIRCLE('',#718,1.);
#159=CIRCLE('',#720,1.);
#160=CIRCLE('',#721,1.);
#161=CIRCLE('',#723,1.);
#162=CIRCLE('',#724,1.);
#163=CIRCLE('',#726,3.);
#164=CIRCLE('',#727,3.);
#165=CIRCLE('',#729,1.);
#166=CIRCLE('',#730,1.);
#167=CIRCLE('',#734,9.);
#168=CIRCLE('',#736,1.);
#169=CIRCLE('',#738,1.);
#170=CIRCLE('',#740,1.);
#171=CIRCLE('',#742,3.);
#172=CIRCLE('',#744,1.);
#173=LINE('',#938,#222);
#174=LINE('',#942,#223);
#175=LINE('',#946,#224);
#176=LINE('',#948,#225);
#177=LINE('',#949,#226);
#178=LINE('',#955,#227);
#179=LINE('',#959,#228);
#180=LINE('',#968,#229);
#181=LINE('',#970,#230);
#182=LINE('',#972,#231);
#183=LINE('',#974,#232);
#184=LINE('',#976,#233);
#185=LINE('',#978,#234);
#186=LINE('',#980,#235);
#187=LINE('',#1085,#236);
#188=LINE('',#1088,#237);
#189=LINE('',#1140,#238);
#190=LINE('',#1143,#239);
#191=LINE('',#1145,#240);
#192=LINE('',#1146,#241);
#193=LINE('',#1149,#242);
#194=LINE('',#1152,#243);
#195=LINE('',#1154,#244);
#196=LINE('',#1156,#245);
#197=LINE('',#1160,#246);
#198=LINE('',#1162,#247);
#199=LINE('',#1163,#248);
#200=LINE('',#1165,#249);
#201=LINE('',#1167,#250);
#202=LINE('',#1181,#251);
#203=LINE('',#1182,#252);
#204=LINE('',#1187,#253);
#205=LINE('',#1191,#254);
#206=LINE('',#1193,#255);
#207=LINE('',#1194,#256);
#208=LINE('',#1199,#257);
#209=LINE('',#1205,#258);
#210=LINE('',#1211,#259);
#211=LINE('',#1217,#260);
#212=LINE('',#1223,#261);
#213=LINE('',#1227,#262);
#214=LINE('',#1228,#263);
#215=LINE('',#1230,#264);
#216=LINE('',#1236,#265);
#217=LINE('',#1240,#266);
#218=LINE('',#1244,#267);
#219=LINE('',#1248,#268);
#220=LINE('',#1252,#269);
#221=LINE('',#1255,#270);
#222=VECTOR('',#752,10.);
#223=VECTOR('',#755,10.);
#224=VECTOR('',#760,1000.);
#225=VECTOR('',#761,1000.);
#226=VECTOR('',#762,1000.);
#227=VECTOR('',#767,10.);
#228=VECTOR('',#770,10.);
#229=VECTOR('',#773,1000.);
#230=VECTOR('',#774,1000.);
#231=VECTOR('',#775,1000.);
#232=VECTOR('',#776,1000.);
#233=VECTOR('',#777,1000.);
#234=VECTOR('',#778,1000.);
#235=VECTOR('',#779,1000.);
#236=VECTOR('',#786,10.);
#237=VECTOR('',#789,10.);
#238=VECTOR('',#792,10.);
#239=VECTOR('',#795,10.);
#240=VECTOR('',#796,1000.);
#241=VECTOR('',#797,1000.);
#242=VECTOR('',#800,10.);
#243=VECTOR('',#803,10.);
#244=VECTOR('',#806,10.);
#245=VECTOR('',#809,10.);
#246=VECTOR('',#814,1000.);
#247=VECTOR('',#815,1000.);
#248=VECTOR('',#816,1000.);
#249=VECTOR('',#819,1000.);
#250=VECTOR('',#820,1000.);
#251=VECTOR('',#835,1000.);
#252=VECTOR('',#836,1000.);
#253=VECTOR('',#841,1000.);
#254=VECTOR('',#846,1000.);
#255=VECTOR('',#847,1000.);
#256=VECTOR('',#848,1000.);
#257=VECTOR('',#853,1.);
#258=VECTOR('',#860,1.);
#259=VECTOR('',#867,1.);
#260=VECTOR('',#874,3.);
#261=VECTOR('',#881,1.);
#262=VECTOR('',#886,1000.);
#263=VECTOR('',#887,1000.);
#264=VECTOR('',#890,1000.);
#265=VECTOR('',#899,1.);
#266=VECTOR('',#904,1.);
#267=VECTOR('',#909,1.);
#268=VECTOR('',#914,3.);
#269=VECTOR('',#919,1.);
#270=VECTOR('',#924,1000.);
#271=B_SPLINE_CURVE_WITH_KNOTS('',3,(#931,#932,#933,#934,#935,#936),
 .UNSPECIFIED.,.F.,.F.,(4,2,4),(1.46832730797599,1.62136141092617,1.66389152159611),
 .UNSPECIFIED.);
#272=B_SPLINE_CURVE_WITH_KNOTS('',3,(#960,#961,#962,#963,#964,#965),
 .UNSPECIFIED.,.F.,.F.,(4,2,4),(1.99459118878821,2.03712129945815,2.19015540240848),
 .UNSPECIFIED.);
#273=B_SPLINE_CURVE_WITH_KNOTS('',3,(#982,#983,#984,#985,#986,#987,#988,
#989,#990,#991,#992,#993,#994,#995,#996,#997),.UNSPECIFIED.,.F.,.F.,(4,
2,2,2,2,2,2,4),(0.,0.070364925097066,0.13293491550506,0.202296373004051,
0.300242276837175,0.445692197417422,0.643787889609315,0.901621986888681),
 .UNSPECIFIED.);
#274=B_SPLINE_CURVE_WITH_KNOTS('',3,(#1029,#1030,#1031,#1032,#1033,#1034,
#1035,#1036,#1037,#1038,#1039,#1040,#1041,#1042,#1043,#1044),
 .UNSPECIFIED.,.F.,.F.,(4,2,2,2,2,2,2,4),(0.,0.119923296234871,0.220293364500418,
0.31498113936481,0.415004000442563,0.534474878036661,0.66031098099176,0.793328877953738),
 .UNSPECIFIED.);
#275=B_SPLINE_CURVE_WITH_KNOTS('',3,(#1046,#1047,#1048,#1049),
 .UNSPECIFIED.,.F.,.F.,(4,4),(-4.81831697215211,-3.94071319365079),
 .UNSPECIFIED.);
#276=B_SPLINE_CURVE_WITH_KNOTS('',3,(#1051,#1052,#1053,#1054,#1055,#1056,
#1057,#1058,#1059,#1060,#1061,#1062,#1063,#1064,#1065,#1066),
 .UNSPECIFIED.,.F.,.F.,(4,2,2,2,2,2,2,4),(0.,0.407646680436668,0.734193113769176,
0.958722197122567,1.11977030543626,1.24590562840939,1.33528609431292,1.42897941576658),
 .UNSPECIFIED.);
#277=B_SPLINE_CURVE_WITH_KNOTS('',3,(#1067,#1068,#1069,#1070),
 .UNSPECIFIED.,.F.,.F.,(4,4),(4.64199538682445,4.64236038646963),
 .UNSPECIFIED.);
#278=B_SPLINE_CURVE_WITH_KNOTS('',3,(#1080,#1081,#1082,#1083),
 .UNSPECIFIED.,.F.,.F.,(4,4),(18.2300065019097,18.23037150155),
 .UNSPECIFIED.);
#279=B_SPLINE_CURVE_WITH_KNOTS('',3,(#1118,#1119,#1120,#1121,#1122,#1123,
#1124,#1125,#1126,#1127,#1128,#1129,#1130,#1131,#1132,#1133),
 .UNSPECIFIED.,.F.,.F.,(4,2,2,2,2,2,2,4),(0.,0.200126776373761,0.36564375120461,
0.501281086644452,0.61892082276805,0.732366123393148,0.821182890624999,
0.914074584876249),.UNSPECIFIED.);
#280=B_SPLINE_CURVE_WITH_KNOTS('',3,(#1134,#1135,#1136,#1137),
 .UNSPECIFIED.,.F.,.F.,(4,4),(-18.9316536977092,-18.0540499162223),
 .UNSPECIFIED.);
#281=VERTEX_POINT('',#929);
#282=VERTEX_POINT('',#930);
#283=VERTEX_POINT('',#937);
#284=VERTEX_POINT('',#939);
#285=VERTEX_POINT('',#941);
#286=VERTEX_POINT('',#945);
#287=VERTEX_POINT('',#947);
#288=VERTEX_POINT('',#951);
#289=VERTEX_POINT('',#952);
#290=VERTEX_POINT('',#954);
#291=VERTEX_POINT('',#956);
#292=VERTEX_POINT('',#958);
#293=VERTEX_POINT('',#967);
#294=VERTEX_POINT('',#969);
#295=VERTEX_POINT('',#971);
#296=VERTEX_POINT('',#973);
#297=VERTEX_POINT('',#975);
#298=VERTEX_POINT('',#977);
#299=VERTEX_POINT('',#979);
#300=VERTEX_POINT('',#981);
#301=VERTEX_POINT('',#1027);
#302=VERTEX_POINT('',#1028);
#303=VERTEX_POINT('',#1045);
#304=VERTEX_POINT('',#1050);
#305=VERTEX_POINT('',#1079);
#306=VERTEX_POINT('',#1084);
#307=VERTEX_POINT('',#1086);
#308=VERTEX_POINT('',#1117);
#309=VERTEX_POINT('',#1139);
#310=VERTEX_POINT('',#1141);
#311=VERTEX_POINT('',#1144);
#312=VERTEX_POINT('',#1148);
#313=VERTEX_POINT('',#1150);
#314=VERTEX_POINT('',#1159);
#315=VERTEX_POINT('',#1161);
#316=VERTEX_POINT('',#1166);
#317=VERTEX_POINT('',#1169);
#318=VERTEX_POINT('',#1171);
#319=VERTEX_POINT('',#1173);
#320=VERTEX_POINT('',#1175);
#321=VERTEX_POINT('',#1177);
#322=VERTEX_POINT('',#1180);
#323=VERTEX_POINT('',#1184);
#324=VERTEX_POINT('',#1186);
#325=VERTEX_POINT('',#1190);
#326=VERTEX_POINT('',#1192);
#327=VERTEX_POINT('',#1196);
#328=VERTEX_POINT('',#1198);
#329=VERTEX_POINT('',#1202);
#330=VERTEX_POINT('',#1204);
#331=VERTEX_POINT('',#1208);
#332=VERTEX_POINT('',#1210);
#333=VERTEX_POINT('',#1214);
#334=VERTEX_POINT('',#1216);
#335=VERTEX_POINT('',#1220);
#336=VERTEX_POINT('',#1222);
#337=VERTEX_POINT('',#1226);
#338=VERTEX_POINT('',#1234);
#339=VERTEX_POINT('',#1238);
#340=VERTEX_POINT('',#1242);
#341=VERTEX_POINT('',#1246);
#342=VERTEX_POINT('',#1250);
#343=EDGE_CURVE('',#281,#282,#271,.F.);
#344=EDGE_CURVE('',#281,#283,#173,.T.);
#345=EDGE_CURVE('',#283,#284,#142,.T.);
#346=EDGE_CURVE('',#284,#285,#174,.T.);
#347=EDGE_CURVE('',#285,#282,#143,.T.);
#348=EDGE_CURVE('',#286,#284,#175,.T.);
#349=EDGE_CURVE('',#287,#286,#176,.T.);
#350=EDGE_CURVE('',#287,#285,#177,.T.);
#351=EDGE_CURVE('',#288,#289,#144,.F.);
#352=EDGE_CURVE('',#288,#290,#178,.T.);
#353=EDGE_CURVE('',#290,#291,#145,.T.);
#354=EDGE_CURVE('',#291,#292,#179,.T.);
#355=EDGE_CURVE('',#292,#289,#272,.T.);
#356=EDGE_CURVE('',#291,#293,#180,.T.);
#357=EDGE_CURVE('',#293,#294,#181,.T.);
#358=EDGE_CURVE('',#294,#295,#182,.T.);
#359=EDGE_CURVE('',#296,#295,#183,.T.);
#360=EDGE_CURVE('',#296,#297,#184,.T.);
#361=EDGE_CURVE('',#297,#298,#185,.T.);
#362=EDGE_CURVE('',#298,#299,#186,.T.);
#363=EDGE_CURVE('',#300,#299,#273,.F.);
#364=EDGE_CURVE('',#300,#292,#38,.T.);
#365=EDGE_CURVE('',#301,#302,#274,.T.);
#366=EDGE_CURVE('',#302,#303,#275,.T.);
#367=EDGE_CURVE('',#303,#304,#276,.F.);
#368=EDGE_CURVE('',#304,#301,#277,.T.);
#369=EDGE_CURVE('',#281,#304,#39,.T.);
#370=EDGE_CURVE('',#282,#289,#40,.F.);
#371=EDGE_CURVE('',#305,#300,#278,.T.);
#372=EDGE_CURVE('',#306,#305,#187,.T.);
#373=EDGE_CURVE('',#307,#306,#146,.T.);
#374=EDGE_CURVE('',#301,#307,#188,.T.);
#375=EDGE_CURVE('',#308,#305,#279,.T.);
#376=EDGE_CURVE('',#299,#308,#280,.T.);
#377=EDGE_CURVE('',#302,#309,#189,.T.);
#378=EDGE_CURVE('',#309,#310,#147,.T.);
#379=EDGE_CURVE('',#310,#308,#190,.T.);
#380=EDGE_CURVE('',#298,#311,#191,.T.);
#381=EDGE_CURVE('',#311,#303,#192,.T.);
#382=EDGE_CURVE('',#306,#312,#193,.T.);
#383=EDGE_CURVE('',#312,#313,#148,.T.);
#384=EDGE_CURVE('',#313,#307,#194,.T.);
#385=EDGE_CURVE('',#312,#310,#195,.T.);
#386=EDGE_CURVE('',#313,#309,#196,.T.);
#387=EDGE_CURVE('',#296,#314,#197,.T.);
#388=EDGE_CURVE('',#295,#315,#198,.T.);
#389=EDGE_CURVE('',#314,#315,#199,.T.);
#390=EDGE_CURVE('',#283,#293,#200,.T.);
#391=EDGE_CURVE('',#290,#316,#201,.T.);
#392=EDGE_CURVE('',#316,#286,#149,.T.);
#393=EDGE_CURVE('',#317,#317,#150,.T.);
#394=EDGE_CURVE('',#318,#318,#151,.T.);
#395=EDGE_CURVE('',#319,#319,#152,.T.);
#396=EDGE_CURVE('',#320,#320,#153,.T.);
#397=EDGE_CURVE('',#321,#321,#154,.T.);
#398=EDGE_CURVE('',#288,#322,#202,.T.);
#399=EDGE_CURVE('',#322,#316,#203,.T.);
#400=EDGE_CURVE('',#315,#323,#155,.T.);
#401=EDGE_CURVE('',#324,#323,#204,.T.);
#402=EDGE_CURVE('',#314,#324,#156,.T.);
#403=EDGE_CURVE('',#323,#325,#205,.T.);
#404=EDGE_CURVE('',#326,#325,#206,.T.);
#405=EDGE_CURVE('',#324,#326,#207,.T.);
#406=EDGE_CURVE('',#327,#327,#157,.T.);
#407=EDGE_CURVE('',#327,#328,#208,.T.);
#408=EDGE_CURVE('',#328,#328,#158,.T.);
#409=EDGE_CURVE('',#329,#329,#159,.T.);
#410=EDGE_CURVE('',#329,#330,#209,.T.);
#411=EDGE_CURVE('',#330,#330,#160,.T.);
#412=EDGE_CURVE('',#331,#331,#161,.T.);
#413=EDGE_CURVE('',#331,#332,#210,.T.);
#414=EDGE_CURVE('',#332,#332,#162,.T.);
#415=EDGE_CURVE('',#333,#333,#163,.T.);
#416=EDGE_CURVE('',#333,#334,#211,.T.);
#417=EDGE_CURVE('',#334,#334,#164,.T.);
#418=EDGE_CURVE('',#335,#335,#165,.T.);
#419=EDGE_CURVE('',#335,#336,#212,.T.);
#420=EDGE_CURVE('',#336,#336,#166,.T.);
#421=EDGE_CURVE('',#337,#326,#213,.T.);
#422=EDGE_CURVE('',#337,#297,#214,.T.);
#423=EDGE_CURVE('',#294,#325,#215,.T.);
#424=EDGE_CURVE('',#322,#287,#167,.T.);
#425=EDGE_CURVE('',#338,#338,#168,.T.);
#426=EDGE_CURVE('',#338,#318,#216,.T.);
#427=EDGE_CURVE('',#339,#339,#169,.T.);
#428=EDGE_CURVE('',#339,#319,#217,.T.);
#429=EDGE_CURVE('',#340,#340,#170,.T.);
#430=EDGE_CURVE('',#340,#320,#218,.T.);
#431=EDGE_CURVE('',#341,#341,#171,.T.);
#432=EDGE_CURVE('',#341,#321,#219,.T.);
#433=EDGE_CURVE('',#342,#342,#172,.T.);
#434=EDGE_CURVE('',#342,#317,#220,.T.);
#435=EDGE_CURVE('',#311,#337,#221,.T.);
#436=ORIENTED_EDGE('',*,*,#343,.F.);
#437=ORIENTED_EDGE('',*,*,#344,.T.);
#438=ORIENTED_EDGE('',*,*,#345,.T.);
#439=ORIENTED_EDGE('',*,*,#346,.T.);
#440=ORIENTED_EDGE('',*,*,#347,.T.);
#441=ORIENTED_EDGE('',*,*,#346,.F.);
#442=ORIENTED_EDGE('',*,*,#348,.F.);
#443=ORIENTED_EDGE('',*,*,#349,.F.);
#444=ORIENTED_EDGE('',*,*,#350,.T.);
#445=ORIENTED_EDGE('',*,*,#351,.F.);
#446=ORIENTED_EDGE('',*,*,#352,.T.);
#447=ORIENTED_EDGE('',*,*,#353,.T.);
#448=ORIENTED_EDGE('',*,*,#354,.T.);
#449=ORIENTED_EDGE('',*,*,#355,.T.);
#450=ORIENTED_EDGE('',*,*,#354,.F.);
#451=ORIENTED_EDGE('',*,*,#356,.T.);
#452=ORIENTED_EDGE('',*,*,#357,.T.);
#453=ORIENTED_EDGE('',*,*,#358,.T.);
#454=ORIENTED_EDGE('',*,*,#359,.F.);
#455=ORIENTED_EDGE('',*,*,#360,.T.);
#456=ORIENTED_EDGE('',*,*,#361,.T.);
#457=ORIENTED_EDGE('',*,*,#362,.T.);
#458=ORIENTED_EDGE('',*,*,#363,.F.);
#459=ORIENTED_EDGE('',*,*,#364,.T.);
#460=ORIENTED_EDGE('',*,*,#365,.T.);
#461=ORIENTED_EDGE('',*,*,#366,.T.);
#462=ORIENTED_EDGE('',*,*,#367,.T.);
#463=ORIENTED_EDGE('',*,*,#368,.T.);
#464=ORIENTED_EDGE('',*,*,#368,.F.);
#465=ORIENTED_EDGE('',*,*,#369,.F.);
#466=ORIENTED_EDGE('',*,*,#343,.T.);
#467=ORIENTED_EDGE('',*,*,#370,.T.);
#468=ORIENTED_EDGE('',*,*,#355,.F.);
#469=ORIENTED_EDGE('',*,*,#364,.F.);
#470=ORIENTED_EDGE('',*,*,#371,.F.);
#471=ORIENTED_EDGE('',*,*,#372,.F.);
#472=ORIENTED_EDGE('',*,*,#373,.F.);
#473=ORIENTED_EDGE('',*,*,#374,.F.);
#474=ORIENTED_EDGE('',*,*,#375,.T.);
#475=ORIENTED_EDGE('',*,*,#371,.T.);
#476=ORIENTED_EDGE('',*,*,#363,.T.);
#477=ORIENTED_EDGE('',*,*,#376,.T.);
#478=ORIENTED_EDGE('',*,*,#366,.F.);
#479=ORIENTED_EDGE('',*,*,#377,.T.);
#480=ORIENTED_EDGE('',*,*,#378,.T.);
#481=ORIENTED_EDGE('',*,*,#379,.T.);
#482=ORIENTED_EDGE('',*,*,#376,.F.);
#483=ORIENTED_EDGE('',*,*,#362,.F.);
#484=ORIENTED_EDGE('',*,*,#380,.T.);
#485=ORIENTED_EDGE('',*,*,#381,.T.);
#486=ORIENTED_EDGE('',*,*,#373,.T.);
#487=ORIENTED_EDGE('',*,*,#382,.T.);
#488=ORIENTED_EDGE('',*,*,#383,.T.);
#489=ORIENTED_EDGE('',*,*,#384,.T.);
#490=ORIENTED_EDGE('',*,*,#375,.F.);
#491=ORIENTED_EDGE('',*,*,#379,.F.);
#492=ORIENTED_EDGE('',*,*,#385,.F.);
#493=ORIENTED_EDGE('',*,*,#382,.F.);
#494=ORIENTED_EDGE('',*,*,#372,.T.);
#495=ORIENTED_EDGE('',*,*,#365,.F.);
#496=ORIENTED_EDGE('',*,*,#374,.T.);
#497=ORIENTED_EDGE('',*,*,#384,.F.);
#498=ORIENTED_EDGE('',*,*,#386,.T.);
#499=ORIENTED_EDGE('',*,*,#377,.F.);
#500=ORIENTED_EDGE('',*,*,#378,.F.);
#501=ORIENTED_EDGE('',*,*,#386,.F.);
#502=ORIENTED_EDGE('',*,*,#383,.F.);
#503=ORIENTED_EDGE('',*,*,#385,.T.);
#504=ORIENTED_EDGE('',*,*,#387,.F.);
#505=ORIENTED_EDGE('',*,*,#359,.T.);
#506=ORIENTED_EDGE('',*,*,#388,.T.);
#507=ORIENTED_EDGE('',*,*,#389,.F.);
#508=ORIENTED_EDGE('',*,*,#348,.T.);
#509=ORIENTED_EDGE('',*,*,#345,.F.);
#510=ORIENTED_EDGE('',*,*,#390,.T.);
#511=ORIENTED_EDGE('',*,*,#356,.F.);
#512=ORIENTED_EDGE('',*,*,#353,.F.);
#513=ORIENTED_EDGE('',*,*,#391,.T.);
#514=ORIENTED_EDGE('',*,*,#392,.T.);
#515=ORIENTED_EDGE('',*,*,#393,.F.);
#516=ORIENTED_EDGE('',*,*,#394,.F.);
#517=ORIENTED_EDGE('',*,*,#395,.F.);
#518=ORIENTED_EDGE('',*,*,#396,.F.);
#519=ORIENTED_EDGE('',*,*,#397,.F.);
#520=ORIENTED_EDGE('',*,*,#352,.F.);
#521=ORIENTED_EDGE('',*,*,#398,.T.);
#522=ORIENTED_EDGE('',*,*,#399,.T.);
#523=ORIENTED_EDGE('',*,*,#391,.F.);
#524=ORIENTED_EDGE('',*,*,#400,.T.);
#525=ORIENTED_EDGE('',*,*,#401,.F.);
#526=ORIENTED_EDGE('',*,*,#402,.F.);
#527=ORIENTED_EDGE('',*,*,#389,.T.);
#528=ORIENTED_EDGE('',*,*,#403,.T.);
#529=ORIENTED_EDGE('',*,*,#404,.F.);
#530=ORIENTED_EDGE('',*,*,#405,.F.);
#531=ORIENTED_EDGE('',*,*,#401,.T.);
#532=ORIENTED_EDGE('',*,*,#406,.T.);
#533=ORIENTED_EDGE('',*,*,#407,.T.);
#534=ORIENTED_EDGE('',*,*,#408,.F.);
#535=ORIENTED_EDGE('',*,*,#407,.F.);
#536=ORIENTED_EDGE('',*,*,#409,.T.);
#537=ORIENTED_EDGE('',*,*,#410,.T.);
#538=ORIENTED_EDGE('',*,*,#411,.F.);
#539=ORIENTED_EDGE('',*,*,#410,.F.);
#540=ORIENTED_EDGE('',*,*,#412,.T.);
#541=ORIENTED_EDGE('',*,*,#413,.T.);
#542=ORIENTED_EDGE('',*,*,#414,.F.);
#543=ORIENTED_EDGE('',*,*,#413,.F.);
#544=ORIENTED_EDGE('',*,*,#415,.T.);
#545=ORIENTED_EDGE('',*,*,#416,.T.);
#546=ORIENTED_EDGE('',*,*,#417,.F.);
#547=ORIENTED_EDGE('',*,*,#416,.F.);
#548=ORIENTED_EDGE('',*,*,#418,.T.);
#549=ORIENTED_EDGE('',*,*,#419,.T.);
#550=ORIENTED_EDGE('',*,*,#420,.F.);
#551=ORIENTED_EDGE('',*,*,#419,.F.);
#552=ORIENTED_EDGE('',*,*,#421,.F.);
#553=ORIENTED_EDGE('',*,*,#422,.T.);
#554=ORIENTED_EDGE('',*,*,#360,.F.);
#555=ORIENTED_EDGE('',*,*,#387,.T.);
#556=ORIENTED_EDGE('',*,*,#402,.T.);
#557=ORIENTED_EDGE('',*,*,#405,.T.);
#558=ORIENTED_EDGE('',*,*,#415,.F.);
#559=ORIENTED_EDGE('',*,*,#412,.F.);
#560=ORIENTED_EDGE('',*,*,#409,.F.);
#561=ORIENTED_EDGE('',*,*,#406,.F.);
#562=ORIENTED_EDGE('',*,*,#418,.F.);
#563=ORIENTED_EDGE('',*,*,#358,.F.);
#564=ORIENTED_EDGE('',*,*,#423,.T.);
#565=ORIENTED_EDGE('',*,*,#403,.F.);
#566=ORIENTED_EDGE('',*,*,#400,.F.);
#567=ORIENTED_EDGE('',*,*,#388,.F.);
#568=ORIENTED_EDGE('',*,*,#417,.T.);
#569=ORIENTED_EDGE('',*,*,#414,.T.);
#570=ORIENTED_EDGE('',*,*,#411,.T.);
#571=ORIENTED_EDGE('',*,*,#408,.T.);
#572=ORIENTED_EDGE('',*,*,#420,.T.);
#573=ORIENTED_EDGE('',*,*,#392,.F.);
#574=ORIENTED_EDGE('',*,*,#399,.F.);
#575=ORIENTED_EDGE('',*,*,#424,.T.);
#576=ORIENTED_EDGE('',*,*,#349,.T.);
#577=ORIENTED_EDGE('',*,*,#425,.F.);
#578=ORIENTED_EDGE('',*,*,#426,.T.);
#579=ORIENTED_EDGE('',*,*,#394,.T.);
#580=ORIENTED_EDGE('',*,*,#426,.F.);
#581=ORIENTED_EDGE('',*,*,#427,.F.);
#582=ORIENTED_EDGE('',*,*,#428,.T.);
#583=ORIENTED_EDGE('',*,*,#395,.T.);
#584=ORIENTED_EDGE('',*,*,#428,.F.);
#585=ORIENTED_EDGE('',*,*,#429,.F.);
#586=ORIENTED_EDGE('',*,*,#430,.T.);
#587=ORIENTED_EDGE('',*,*,#396,.T.);
#588=ORIENTED_EDGE('',*,*,#430,.F.);
#589=ORIENTED_EDGE('',*,*,#431,.F.);
#590=ORIENTED_EDGE('',*,*,#432,.T.);
#591=ORIENTED_EDGE('',*,*,#397,.T.);
#592=ORIENTED_EDGE('',*,*,#432,.F.);
#593=ORIENTED_EDGE('',*,*,#433,.F.);
#594=ORIENTED_EDGE('',*,*,#434,.T.);
#595=ORIENTED_EDGE('',*,*,#393,.T.);
#596=ORIENTED_EDGE('',*,*,#434,.F.);
#597=ORIENTED_EDGE('',*,*,#370,.F.);
#598=ORIENTED_EDGE('',*,*,#347,.F.);
#599=ORIENTED_EDGE('',*,*,#350,.F.);
#600=ORIENTED_EDGE('',*,*,#424,.F.);
#601=ORIENTED_EDGE('',*,*,#398,.F.);
#602=ORIENTED_EDGE('',*,*,#351,.T.);
#603=ORIENTED_EDGE('',*,*,#433,.T.);
#604=ORIENTED_EDGE('',*,*,#425,.T.);
#605=ORIENTED_EDGE('',*,*,#427,.T.);
#606=ORIENTED_EDGE('',*,*,#429,.T.);
#607=ORIENTED_EDGE('',*,*,#431,.T.);
#608=ORIENTED_EDGE('',*,*,#344,.F.);
#609=ORIENTED_EDGE('',*,*,#369,.T.);
#610=ORIENTED_EDGE('',*,*,#367,.F.);
#611=ORIENTED_EDGE('',*,*,#381,.F.);
#612=ORIENTED_EDGE('',*,*,#435,.T.);
#613=ORIENTED_EDGE('',*,*,#421,.T.);
#614=ORIENTED_EDGE('',*,*,#404,.T.);
#615=ORIENTED_EDGE('',*,*,#423,.F.);
#616=ORIENTED_EDGE('',*,*,#357,.F.);
#617=ORIENTED_EDGE('',*,*,#390,.F.);
#618=ORIENTED_EDGE('',*,*,#435,.F.);
#619=ORIENTED_EDGE('',*,*,#380,.F.);
#620=ORIENTED_EDGE('',*,*,#361,.F.);
#621=ORIENTED_EDGE('',*,*,#422,.F.);
#622=CYLINDRICAL_SURFACE('',#684,3.);
#623=CYLINDRICAL_SURFACE('',#688,3.);
#624=CYLINDRICAL_SURFACE('',#702,32.);
#625=CYLINDRICAL_SURFACE('',#712,9.);
#626=CYLINDRICAL_SURFACE('',#716,1.);
#627=CYLINDRICAL_SURFACE('',#719,1.);
#628=CYLINDRICAL_SURFACE('',#722,1.);
#629=CYLINDRICAL_SURFACE('',#725,3.);
#630=CYLINDRICAL_SURFACE('',#728,1.);
#631=CYLINDRICAL_SURFACE('',#733,9.);
#632=CYLINDRICAL_SURFACE('',#735,1.);
#633=CYLINDRICAL_SURFACE('',#737,1.);
#634=CYLINDRICAL_SURFACE('',#739,1.);
#635=CYLINDRICAL_SURFACE('',#741,3.);
#636=CYLINDRICAL_SURFACE('',#743,1.);
#637=ADVANCED_FACE('',(#56),#622,.F.);
#638=ADVANCED_FACE('',(#57),#41,.F.);
#639=ADVANCED_FACE('',(#58),#623,.F.);
#640=ADVANCED_FACE('',(#59),#42,.F.);
#641=ADVANCED_FACE('',(#60),#36,.F.);
#642=ADVANCED_FACE('',(#61),#35,.F.);
#643=ADVANCED_FACE('',(#62),#37,.F.);
#644=ADVANCED_FACE('',(#63),#43,.F.);
#645=ADVANCED_FACE('',(#64),#44,.T.);
#646=ADVANCED_FACE('',(#65),#45,.F.);
#647=ADVANCED_FACE('',(#66),#46,.F.);
#648=ADVANCED_FACE('',(#67),#624,.T.);
#649=ADVANCED_FACE('',(#68),#47,.F.);
#650=ADVANCED_FACE('',(#69,#15,#16,#17,#18,#19),#48,.T.);
#651=ADVANCED_FACE('',(#70),#49,.F.);
#652=ADVANCED_FACE('',(#71),#625,.T.);
#653=ADVANCED_FACE('',(#72),#50,.F.);
#654=ADVANCED_FACE('',(#73),#626,.F.);
#655=ADVANCED_FACE('',(#74),#627,.F.);
#656=ADVANCED_FACE('',(#75),#628,.F.);
#657=ADVANCED_FACE('',(#76),#629,.F.);
#658=ADVANCED_FACE('',(#77),#630,.F.);
#659=ADVANCED_FACE('',(#78,#20,#21,#22,#23,#24),#51,.T.);
#660=ADVANCED_FACE('',(#79,#25,#26,#27,#28,#29),#52,.F.);
#661=ADVANCED_FACE('',(#80),#631,.T.);
#662=ADVANCED_FACE('',(#81),#632,.F.);
#663=ADVANCED_FACE('',(#82),#633,.F.);
#664=ADVANCED_FACE('',(#83),#634,.F.);
#665=ADVANCED_FACE('',(#84),#635,.F.);
#666=ADVANCED_FACE('',(#85),#636,.F.);
#667=ADVANCED_FACE('',(#86,#30,#31,#32,#33,#34),#53,.F.);
#668=ADVANCED_FACE('',(#87),#54,.T.);
#669=ADVANCED_FACE('',(#88),#55,.F.);
#670=CLOSED_SHELL('',(#637,#638,#639,#640,#641,#642,#643,#644,#645,#646,
#647,#648,#649,#650,#651,#652,#653,#654,#655,#656,#657,#658,#659,#660,#661,
#662,#663,#664,#665,#666,#667,#668,#669));
#671=DERIVED_UNIT_ELEMENT(#673,1.);
#672=DERIVED_UNIT_ELEMENT(#1262,-3.);
#673=(
MASS_UNIT()
NAMED_UNIT(*)
SI_UNIT(.KILO.,.GRAM.)
);
#674=DERIVED_UNIT((#671,#672));
#675=MEASURE_REPRESENTATION_ITEM('density measure',
POSITIVE_RATIO_MEASURE(7850.),#674);
#676=PROPERTY_DEFINITION_REPRESENTATION(#681,#678);
#677=PROPERTY_DEFINITION_REPRESENTATION(#682,#679);
#678=REPRESENTATION('material name',(#680),#1259);
#679=REPRESENTATION('density',(#675),#1259);
#680=DESCRIPTIVE_REPRESENTATION_ITEM('\X2\92FC\X0\','\X2\92FC\X0\');
#681=PROPERTY_DEFINITION('material property','material name',#1269);
#682=PROPERTY_DEFINITION('material property','density of part',#1269);
#683=AXIS2_PLACEMENT_3D('',#927,#748,#749);
#684=AXIS2_PLACEMENT_3D('',#928,#750,#751);
#685=AXIS2_PLACEMENT_3D('',#940,#753,#754);
#686=AXIS2_PLACEMENT_3D('',#943,#756,#757);
#687=AXIS2_PLACEMENT_3D('',#944,#758,#759);
#688=AXIS2_PLACEMENT_3D('',#950,#763,#764);
#689=AXIS2_PLACEMENT_3D('',#953,#765,#766);
#690=AXIS2_PLACEMENT_3D('',#957,#768,#769);
#691=AXIS2_PLACEMENT_3D('',#966,#771,#772);
#692=AXIS2_PLACEMENT_3D('',#998,#780,#781);
#693=AXIS2_PLACEMENT_3D('',#1077,#782,#783);
#694=AXIS2_PLACEMENT_3D('',#1078,#784,#785);
#695=AXIS2_PLACEMENT_3D('',#1087,#787,#788);
#696=AXIS2_PLACEMENT_3D('',#1138,#790,#791);
#697=AXIS2_PLACEMENT_3D('',#1142,#793,#794);
#698=AXIS2_PLACEMENT_3D('',#1147,#798,#799);
#699=AXIS2_PLACEMENT_3D('',#1151,#801,#802);
#700=AXIS2_PLACEMENT_3D('',#1153,#804,#805);
#701=AXIS2_PLACEMENT_3D('',#1155,#807,#808);
#702=AXIS2_PLACEMENT_3D('',#1157,#810,#811);
#703=AXIS2_PLACEMENT_3D('',#1158,#812,#813);
#704=AXIS2_PLACEMENT_3D('',#1164,#817,#818);
#705=AXIS2_PLACEMENT_3D('',#1168,#821,#822);
#706=AXIS2_PLACEMENT_3D('',#1170,#823,#824);
#707=AXIS2_PLACEMENT_3D('',#1172,#825,#826);
#708=AXIS2_PLACEMENT_3D('',#1174,#827,#828);
#709=AXIS2_PLACEMENT_3D('',#1176,#829,#830);
#710=AXIS2_PLACEMENT_3D('',#1178,#831,#832);
#711=AXIS2_PLACEMENT_3D('',#1179,#833,#834);
#712=AXIS2_PLACEMENT_3D('',#1183,#837,#838);
#713=AXIS2_PLACEMENT_3D('',#1185,#839,#840);
#714=AXIS2_PLACEMENT_3D('',#1188,#842,#843);
#715=AXIS2_PLACEMENT_3D('',#1189,#844,#845);
#716=AXIS2_PLACEMENT_3D('',#1195,#849,#850);
#717=AXIS2_PLACEMENT_3D('',#1197,#851,#852);
#718=AXIS2_PLACEMENT_3D('',#1200,#854,#855);
#719=AXIS2_PLACEMENT_3D('',#1201,#856,#857);
#720=AXIS2_PLACEMENT_3D('',#1203,#858,#859);
#721=AXIS2_PLACEMENT_3D('',#1206,#861,#862);
#722=AXIS2_PLACEMENT_3D('',#1207,#863,#864);
#723=AXIS2_PLACEMENT_3D('',#1209,#865,#866);
#724=AXIS2_PLACEMENT_3D('',#1212,#868,#869);
#725=AXIS2_PLACEMENT_3D('',#1213,#870,#871);
#726=AXIS2_PLACEMENT_3D('',#1215,#872,#873);
#727=AXIS2_PLACEMENT_3D('',#1218,#875,#876);
#728=AXIS2_PLACEMENT_3D('',#1219,#877,#878);
#729=AXIS2_PLACEMENT_3D('',#1221,#879,#880);
#730=AXIS2_PLACEMENT_3D('',#1224,#882,#883);
#731=AXIS2_PLACEMENT_3D('',#1225,#884,#885);
#732=AXIS2_PLACEMENT_3D('',#1229,#888,#889);
#733=AXIS2_PLACEMENT_3D('',#1231,#891,#892);
#734=AXIS2_PLACEMENT_3D('',#1232,#893,#894);
#735=AXIS2_PLACEMENT_3D('',#1233,#895,#896);
#736=AXIS2_PLACEMENT_3D('',#1235,#897,#898);
#737=AXIS2_PLACEMENT_3D('',#1237,#900,#901);
#738=AXIS2_PLACEMENT_3D('',#1239,#902,#903);
#739=AXIS2_PLACEMENT_3D('',#1241,#905,#906);
#740=AXIS2_PLACEMENT_3D('',#1243,#907,#908);
#741=AXIS2_PLACEMENT_3D('',#1245,#910,#911);
#742=AXIS2_PLACEMENT_3D('',#1247,#912,#913);
#743=AXIS2_PLACEMENT_3D('',#1249,#915,#916);
#744=AXIS2_PLACEMENT_3D('',#1251,#917,#918);
#745=AXIS2_PLACEMENT_3D('',#1253,#920,#921);
#746=AXIS2_PLACEMENT_3D('',#1254,#922,#923);
#747=AXIS2_PLACEMENT_3D('',#1256,#925,#926);
#748=DIRECTION('axis',(0.,0.,1.));
#749=DIRECTION('refdir',(1.,0.,0.));
#750=DIRECTION('center_axis',(-1.67057573878729E-47,-1.,-1.38777878078145E-16));
#751=DIRECTION('ref_axis',(-0.887010833178222,0.,-0.461748613235034));
#752=DIRECTION('',(1.67057573878729E-47,1.,1.38777878078145E-16));
#753=DIRECTION('center_axis',(0.,1.,1.38777878078144E-16));
#754=DIRECTION('ref_axis',(-0.887010833178222,0.,-0.461748613235034));
#755=DIRECTION('',(-1.80742129194401E-47,-1.,-1.38777878078145E-16));
#756=DIRECTION('center_axis',(0.,-1.,-1.38777878078144E-16));
#757=DIRECTION('ref_axis',(-0.887010833178222,0.,-0.461748613235034));
#758=DIRECTION('center_axis',(-1.,-1.17434752706539E-32,8.46206573647223E-17));
#759=DIRECTION('ref_axis',(8.46206573647223E-17,0.,1.));
#760=DIRECTION('',(-8.46206573647223E-17,1.38777878078144E-16,-1.));
#761=DIRECTION('',(0.,1.,1.38777878078144E-16));
#762=DIRECTION('',(-8.46206573647223E-17,1.38777878078144E-16,-1.));
#763=DIRECTION('center_axis',(0.,-1.,-1.38777878078145E-16));
#764=DIRECTION('ref_axis',(0.887010833178222,0.,-0.461748613235034));
#765=DIRECTION('center_axis',(0.,-1.,-1.38777878078144E-16));
#766=DIRECTION('ref_axis',(0.887010833178222,0.,-0.461748613235034));
#767=DIRECTION('',(0.,1.,1.38777878078145E-16));
#768=DIRECTION('center_axis',(0.,1.,1.38777878078144E-16));
#769=DIRECTION('ref_axis',(0.887010833178222,0.,-0.461748613235034));
#770=DIRECTION('',(0.,-1.,-1.38777878078145E-16));
#771=DIRECTION('center_axis',(0.573576436351046,1.13680182529801E-16,-0.819152044288992));
#772=DIRECTION('ref_axis',(-0.819152044288992,0.,-0.573576436351046));
#773=DIRECTION('',(0.819152044288992,-7.95997207524221E-17,0.573576436351046));
#774=DIRECTION('',(0.,1.,1.38777878078145E-16));
#775=DIRECTION('',(-0.819152044288992,7.95997207524221E-17,-0.573576436351046));
#776=DIRECTION('',(0.,-1.,-1.38777878078145E-16));
#777=DIRECTION('',(-0.819152044288992,7.95997207524221E-17,-0.573576436351046));
#778=DIRECTION('',(-0.71056477546163,0.497542812164523,-0.497542812164523));
#779=DIRECTION('',(0.,-1.,-1.38777878078145E-16));
#780=DIRECTION('center_axis',(-0.573576436351046,-1.13680182529801E-16,
0.819152044288992));
#781=DIRECTION('ref_axis',(-0.540217635993782,0.751718633072365,-0.378264460996675));
#782=DIRECTION('center_axis',(0.573576436351046,-1.13680182529801E-16,0.819152044288992));
#783=DIRECTION('ref_axis',(-0.540217635993807,-0.751718633072338,0.378264460996693));
#784=DIRECTION('center_axis',(0.,-1.,-1.38777878078144E-16));
#785=DIRECTION('ref_axis',(-1.,-1.57772181044202E-29,8.25483673817382E-14));
#786=DIRECTION('',(0.,-0.782019228446708,0.623254303105574));
#787=DIRECTION('center_axis',(0.,0.,-1.));
#788=DIRECTION('ref_axis',(-4.02338141718239E-14,-1.,0.));
#789=DIRECTION('',(0.,0.782019228446708,-0.623254303105574));
#790=DIRECTION('center_axis',(0.,1.38777878078144E-16,-1.));
#791=DIRECTION('ref_axis',(1.,0.,0.));
#792=DIRECTION('',(2.54584283310787E-21,1.,1.38777878078144E-16));
#793=DIRECTION('center_axis',(0.,-1.38777878078144E-16,1.));
#794=DIRECTION('ref_axis',(-0.625,0.7806247497998,0.));
#795=DIRECTION('',(-2.54584283310787E-21,-1.,-1.38777878078144E-16));
#796=DIRECTION('',(1.,0.,0.));
#797=DIRECTION('',(0.,-1.,-1.38777878078145E-16));
#798=DIRECTION('center_axis',(0.,0.,-1.));
#799=DIRECTION('ref_axis',(-1.,0.,0.));
#800=DIRECTION('',(2.54584283310787E-21,1.,0.));
#801=DIRECTION('center_axis',(0.,0.,-1.));
#802=DIRECTION('ref_axis',(-0.625,0.7806247497998,0.));
#803=DIRECTION('',(-2.54584283310787E-21,-1.,0.));
#804=DIRECTION('center_axis',(1.,-2.54584283310787E-21,0.));
#805=DIRECTION('ref_axis',(2.54584283310787E-21,1.,3.33719717344697E-26));
#806=DIRECTION('',(0.,0.,1.));
#807=DIRECTION('center_axis',(-1.,2.54584283310787E-21,0.));
#808=DIRECTION('ref_axis',(-2.54584283310787E-21,-1.,-3.33719717344697E-26));
#809=DIRECTION('',(0.,0.,1.));
#810=DIRECTION('center_axis',(0.,0.,1.));
#811=DIRECTION('ref_axis',(-0.625,0.7806247497998,0.));
#812=DIRECTION('center_axis',(1.,0.,0.));
#813=DIRECTION('ref_axis',(0.,0.,-1.));
#814=DIRECTION('',(0.,-1.38777878078144E-16,1.));
#815=DIRECTION('',(0.,-1.38777878078144E-16,1.));
#816=DIRECTION('',(0.,-1.,-1.38777878078144E-16));
#817=DIRECTION('center_axis',(0.,1.,1.38777878078144E-16));
#818=DIRECTION('ref_axis',(-1.,0.,0.));
#819=DIRECTION('',(-0.819152044288992,-7.95997207524221E-17,0.573576436351046));
#820=DIRECTION('',(0.,-1.38777878078144E-16,1.));
#821=DIRECTION('center_axis',(0.,1.,1.38777878078144E-16));
#822=DIRECTION('ref_axis',(0.,-1.38777878078144E-16,1.));
#823=DIRECTION('center_axis',(0.,1.,1.38777878078144E-16));
#824=DIRECTION('ref_axis',(0.,-1.38777878078144E-16,1.));
#825=DIRECTION('center_axis',(0.,1.,1.38777878078144E-16));
#826=DIRECTION('ref_axis',(0.,-1.38777878078144E-16,1.));
#827=DIRECTION('center_axis',(0.,1.,1.38777878078144E-16));
#828=DIRECTION('ref_axis',(0.,-1.38777878078144E-16,1.));
#829=DIRECTION('center_axis',(0.,1.,1.38777878078144E-16));
#830=DIRECTION('ref_axis',(0.,-1.38777878078144E-16,1.));
#831=DIRECTION('center_axis',(0.,1.,1.38777878078144E-16));
#832=DIRECTION('ref_axis',(0.,-1.38777878078144E-16,1.));
#833=DIRECTION('center_axis',(1.,0.,0.));
#834=DIRECTION('ref_axis',(0.,0.,-1.));
#835=DIRECTION('',(0.,-1.38777878078144E-16,1.));
#836=DIRECTION('',(0.,1.,1.38777878078144E-16));
#837=DIRECTION('center_axis',(0.,-1.,-1.38777878078144E-16));
#838=DIRECTION('ref_axis',(1.22464679914735E-16,-1.38777878078144E-16,1.));
#839=DIRECTION('center_axis',(0.,1.,1.38777878078144E-16));
#840=DIRECTION('ref_axis',(0.,-1.38777878078144E-16,1.));
#841=DIRECTION('',(0.,-1.,-1.38777878078144E-16));
#842=DIRECTION('center_axis',(0.,1.,1.38777878078144E-16));
#843=DIRECTION('ref_axis',(0.,-1.38777878078144E-16,1.));
#844=DIRECTION('center_axis',(-1.,-1.17434752706539E-32,8.46206573647223E-17));
#845=DIRECTION('ref_axis',(8.46206573647223E-17,0.,1.));
#846=DIRECTION('',(-8.46206573647223E-17,1.38777878078144E-16,-1.));
#847=DIRECTION('',(0.,-1.,-1.38777878078145E-16));
#848=DIRECTION('',(-8.46206573647223E-17,1.38777878078144E-16,-1.));
#849=DIRECTION('center_axis',(0.,-1.,-1.38777878078144E-16));
#850=DIRECTION('ref_axis',(0.,1.38777878078144E-16,-1.));
#851=DIRECTION('center_axis',(0.,1.,1.38777878078144E-16));
#852=DIRECTION('ref_axis',(0.,-1.38777878078144E-16,1.));
#853=DIRECTION('',(0.,-1.,-1.38777878078144E-16));
#854=DIRECTION('center_axis',(0.,1.,1.38777878078144E-16));
#855=DIRECTION('ref_axis',(0.,-1.38777878078144E-16,1.));
#856=DIRECTION('center_axis',(0.,-1.,-1.38777878078144E-16));
#857=DIRECTION('ref_axis',(0.,1.38777878078144E-16,-1.));
#858=DIRECTION('center_axis',(0.,1.,1.38777878078144E-16));
#859=DIRECTION('ref_axis',(0.,-1.38777878078144E-16,1.));
#860=DIRECTION('',(0.,-1.,-1.38777878078144E-16));
#861=DIRECTION('center_axis',(0.,1.,1.38777878078144E-16));
#862=DIRECTION('ref_axis',(0.,-1.38777878078144E-16,1.));
#863=DIRECTION('center_axis',(0.,-1.,-1.38777878078144E-16));
#864=DIRECTION('ref_axis',(0.,1.38777878078144E-16,-1.));
#865=DIRECTION('center_axis',(0.,1.,1.38777878078144E-16));
#866=DIRECTION('ref_axis',(0.,-1.38777878078144E-16,1.));
#867=DIRECTION('',(0.,-1.,-1.38777878078144E-16));
#868=DIRECTION('center_axis',(0.,1.,1.38777878078144E-16));
#869=DIRECTION('ref_axis',(0.,-1.38777878078144E-16,1.));
#870=DIRECTION('center_axis',(0.,-1.,-1.38777878078144E-16));
#871=DIRECTION('ref_axis',(0.,1.38777878078144E-16,-1.));
#872=DIRECTION('center_axis',(0.,1.,1.38777878078144E-16));
#873=DIRECTION('ref_axis',(0.,-1.38777878078144E-16,1.));
#874=DIRECTION('',(0.,-1.,-1.38777878078144E-16));
#875=DIRECTION('center_axis',(0.,1.,1.38777878078144E-16));
#876=DIRECTION('ref_axis',(0.,-1.38777878078144E-16,1.));
#877=DIRECTION('center_axis',(0.,-1.,-1.38777878078144E-16));
#878=DIRECTION('ref_axis',(0.,1.38777878078144E-16,-1.));
#879=DIRECTION('center_axis',(0.,1.,1.38777878078144E-16));
#880=DIRECTION('ref_axis',(0.,-1.38777878078144E-16,1.));
#881=DIRECTION('',(0.,-1.,-1.38777878078144E-16));
#882=DIRECTION('center_axis',(0.,1.,1.38777878078144E-16));
#883=DIRECTION('ref_axis',(0.,-1.38777878078144E-16,1.));
#884=DIRECTION('center_axis',(0.,1.,1.38777878078144E-16));
#885=DIRECTION('ref_axis',(-1.,0.,0.));
#886=DIRECTION('',(-0.819152044288992,-7.95997207524221E-17,0.573576436351046));
#887=DIRECTION('',(-1.,0.,0.));
#888=DIRECTION('center_axis',(0.,1.,1.38777878078144E-16));
#889=DIRECTION('ref_axis',(-1.,0.,0.));
#890=DIRECTION('',(0.819152044288992,7.95997207524221E-17,-0.573576436351046));
#891=DIRECTION('center_axis',(0.,1.,1.38777878078144E-16));
#892=DIRECTION('ref_axis',(0.,-1.38777878078144E-16,1.));
#893=DIRECTION('center_axis',(0.,1.,1.38777878078144E-16));
#894=DIRECTION('ref_axis',(0.,-1.38777878078144E-16,1.));
#895=DIRECTION('center_axis',(0.,1.,1.38777878078144E-16));
#896=DIRECTION('ref_axis',(0.,-1.38777878078144E-16,1.));
#897=DIRECTION('center_axis',(0.,1.,1.38777878078144E-16));
#898=DIRECTION('ref_axis',(0.,-1.38777878078144E-16,1.));
#899=DIRECTION('',(0.,1.,1.38777878078144E-16));
#900=DIRECTION('center_axis',(0.,1.,1.38777878078144E-16));
#901=DIRECTION('ref_axis',(0.,-1.38777878078144E-16,1.));
#902=DIRECTION('center_axis',(0.,1.,1.38777878078144E-16));
#903=DIRECTION('ref_axis',(0.,-1.38777878078144E-16,1.));
#904=DIRECTION('',(0.,1.,1.38777878078144E-16));
#905=DIRECTION('center_axis',(0.,1.,1.38777878078144E-16));
#906=DIRECTION('ref_axis',(0.,-1.38777878078144E-16,1.));
#907=DIRECTION('center_axis',(0.,1.,1.38777878078144E-16));
#908=DIRECTION('ref_axis',(0.,-1.38777878078144E-16,1.));
#909=DIRECTION('',(0.,1.,1.38777878078144E-16));
#910=DIRECTION('center_axis',(0.,1.,1.38777878078144E-16));
#911=DIRECTION('ref_axis',(0.,-1.38777878078144E-16,1.));
#912=DIRECTION('center_axis',(0.,1.,1.38777878078144E-16));
#913=DIRECTION('ref_axis',(0.,-1.38777878078144E-16,1.));
#914=DIRECTION('',(0.,1.,1.38777878078144E-16));
#915=DIRECTION('center_axis',(0.,1.,1.38777878078144E-16));
#916=DIRECTION('ref_axis',(0.,-1.38777878078144E-16,1.));
#917=DIRECTION('center_axis',(0.,1.,1.38777878078144E-16));
#918=DIRECTION('ref_axis',(0.,-1.38777878078144E-16,1.));
#919=DIRECTION('',(0.,1.,1.38777878078144E-16));
#920=DIRECTION('center_axis',(0.,1.,1.38777878078144E-16));
#921=DIRECTION('ref_axis',(-1.,0.,0.));
#922=DIRECTION('center_axis',(0.573576436351046,-1.13680182529801E-16,0.819152044288992));
#923=DIRECTION('ref_axis',(0.819152044288992,0.,-0.573576436351046));
#924=DIRECTION('',(-0.71056477546163,-0.497542812164523,0.497542812164523));
#925=DIRECTION('center_axis',(0.,-0.707106781186547,-0.707106781186548));
#926=DIRECTION('ref_axis',(-1.,0.,0.));
#927=CARTESIAN_POINT('',(0.,0.,0.));
#928=CARTESIAN_POINT('Origin',(12.,-9.251,-6.83752528546598));
#929=CARTESIAN_POINT('',(10.2792706909469,-39.9718283982594,-9.29498141833297));
#930=CARTESIAN_POINT('',(9.38469311459496,-41.5000000000176,-8.30727692950419));
#931=CARTESIAN_POINT('Ctrl Pts',(9.38469311459948,-41.5000000000237,-8.30727692951223));
#932=CARTESIAN_POINT('Ctrl Pts',(9.55317919419418,-41.0721358999967,-8.60708459146869));
#933=CARTESIAN_POINT('Ctrl Pts',(9.77654713766787,-40.6578789701609,-8.88144200740437));
#934=CARTESIAN_POINT('Ctrl Pts',(10.113589330376,-40.1816481213234,-9.17222577881382));
#935=CARTESIAN_POINT('Ctrl Pts',(10.1933207007902,-40.0764965327671,-9.23479858731625));
#936=CARTESIAN_POINT('Ctrl Pts',(10.2792706909469,-39.9718283982594,-9.29498141833296));
#937=CARTESIAN_POINT('',(10.2792706909469,-38.5,-9.29498141833296));
#938=CARTESIAN_POINT('',(10.2792706909469,-9.251,-9.29498141833296));
#939=CARTESIAN_POINT('',(9.,-38.5,-6.83752528546599));
#940=CARTESIAN_POINT('Origin',(12.,-38.5,-6.83752528546599));
#941=CARTESIAN_POINT('',(9.,-41.5,-6.83752528546599));
#942=CARTESIAN_POINT('',(9.,-9.251,-6.83752528546598));
#943=CARTESIAN_POINT('Origin',(12.,-41.5,-6.83752528546599));
#944=CARTESIAN_POINT('Origin',(9.,20.,-0.75));
#945=CARTESIAN_POINT('',(9.,-38.5,9.5));
#946=CARTESIAN_POINT('',(9.,-38.5,-0.75));
#947=CARTESIAN_POINT('',(9.,-41.5,9.5));
#948=CARTESIAN_POINT('',(9.,-41.5,9.5));
#949=CARTESIAN_POINT('',(9.,-41.5,-0.75));
#950=CARTESIAN_POINT('Origin',(-12.,-9.251,-6.83752528546598));
#951=CARTESIAN_POINT('',(-9.,-41.5,-6.83752528546599));
#952=CARTESIAN_POINT('',(-9.3846931145945,-41.5000000000176,-8.30727692950336));
#953=CARTESIAN_POINT('Origin',(-12.,-41.5,-6.83752528546599));
#954=CARTESIAN_POINT('',(-9.,-38.5,-6.83752528546599));
#955=CARTESIAN_POINT('',(-9.,-9.251,-6.83752528546598));
#956=CARTESIAN_POINT('',(-10.2792706909469,-38.5,-9.29498141833296));
#957=CARTESIAN_POINT('Origin',(-12.,-38.5,-6.83752528546599));
#958=CARTESIAN_POINT('',(-10.2792706909469,-39.9718283982581,-9.29498141833297));
#959=CARTESIAN_POINT('',(-10.2792706909469,-9.251,-9.29498141833296));
#960=CARTESIAN_POINT('Ctrl Pts',(-10.2792706909469,-39.9718283982581,-9.29498141833297));
#961=CARTESIAN_POINT('Ctrl Pts',(-10.1933207007902,-40.0764965327658,-9.23479858731625));
#962=CARTESIAN_POINT('Ctrl Pts',(-10.113589330376,-40.1816481213221,-9.17222577881381));
#963=CARTESIAN_POINT('Ctrl Pts',(-9.77654713766763,-40.65787897016,-8.88144200740415));
#964=CARTESIAN_POINT('Ctrl Pts',(-9.55317919419377,-41.0721358999963,-8.60708459146818));
#965=CARTESIAN_POINT('Ctrl Pts',(-9.38469311459901,-41.5000000000237,-8.3072769295114));
#966=CARTESIAN_POINT('Origin',(-4.57195978147881,-38.502,-5.29867929661692));
#967=CARTESIAN_POINT('',(1.7347234759768E-15,-38.5,-2.09735859323384));
#968=CARTESIAN_POINT('',(-4.57195978147881,-38.5,-5.29867929661692));
#969=CARTESIAN_POINT('',(1.7347234759768E-15,17.,-2.09735859323384));
#970=CARTESIAN_POINT('',(1.7347234759768E-15,-38.502,-2.09735859323384));
#971=CARTESIAN_POINT('',(-9.,17.,-8.39922643712123));
#972=CARTESIAN_POINT('',(-4.57195978147881,17.,-5.29867929661692));
#973=CARTESIAN_POINT('',(-9.,20.,-8.39922643712123));
#974=CARTESIAN_POINT('',(-9.,20.002,-8.39922643712123));
#975=CARTESIAN_POINT('',(-9.00110476228339,20.,-8.4));
#976=CARTESIAN_POINT('',(-10.8571447899064,20.,-9.69961321856062));
#977=CARTESIAN_POINT('',(-12.7142895798129,22.6,-11.));
#978=CARTESIAN_POINT('',(15.0141967466954,3.184304851034,8.415695148966));
#979=CARTESIAN_POINT('',(-12.7142895791111,-28.1309041360161,-11.));
#980=CARTESIAN_POINT('',(-12.7142895798129,20.002,-11.));
#981=CARTESIAN_POINT('',(-19.9968757147536,-26.1126060242976,-16.0993217104095));
#982=CARTESIAN_POINT('Ctrl Pts',(-12.7142895798129,-28.1309041353599,-11.));
#983=CARTESIAN_POINT('Ctrl Pts',(-12.7142895798129,-28.3654538856834,-11.));
#984=CARTESIAN_POINT('Ctrl Pts',(-12.7465260486696,-28.5955104184691,-11.0225722182023));
#985=CARTESIAN_POINT('Ctrl Pts',(-12.8852946627386,-29.004236855412,-11.1197390478403));
#986=CARTESIAN_POINT('Ctrl Pts',(-12.9797064472265,-29.1752605115513,-11.18584689133));
#987=CARTESIAN_POINT('Ctrl Pts',(-13.2329215577136,-29.4870600826968,-11.3631500204817));
#988=CARTESIAN_POINT('Ctrl Pts',(-13.3915463851436,-29.6152013341269,-11.4742203203922));
#989=CARTESIAN_POINT('Ctrl Pts',(-13.8057243676214,-29.850212929636,-11.7642308658836));
#990=CARTESIAN_POINT('Ctrl Pts',(-14.073316708801,-29.9263622547716,-11.9516010403013));
#991=CARTESIAN_POINT('Ctrl Pts',(-14.7368845444244,-30.0084088242651,-12.4162362409183));
#992=CARTESIAN_POINT('Ctrl Pts',(-15.184822115945,-29.969135053297,-12.7298855041449));
#993=CARTESIAN_POINT('Ctrl Pts',(-16.3176026839818,-29.6500330266107,-13.5230669970217));
#994=CARTESIAN_POINT('Ctrl Pts',(-17.0134614044592,-29.2923287657104,-14.0103125196761));
#995=CARTESIAN_POINT('Ctrl Pts',(-18.5846571241168,-28.0745178191802,-15.1104756065832));
#996=CARTESIAN_POINT('Ctrl Pts',(-19.3775026230996,-27.1525400923756,-15.6656320016066));
#997=CARTESIAN_POINT('Ctrl Pts',(-19.9968757162001,-26.1126060232021,-16.0993217103599));
#998=CARTESIAN_POINT('Origin',(3.67399236284942E-20,-18.6988715146715,-2.09735859323384));
#999=CARTESIAN_POINT('Ctrl Pts',(13.3554642496844,-30.0139258931418,-16.2554758471779));
#1000=CARTESIAN_POINT('Ctrl Pts',(16.2777190210498,-28.728606084848,-16.2102191994024));
#1001=CARTESIAN_POINT('Ctrl Pts',(19.0226935603532,-27.0153820941051,-16.1457882571291));
#1002=CARTESIAN_POINT('Ctrl Pts',(21.4740085007187,-24.925165110705,-16.0433459028607));
#1003=CARTESIAN_POINT('Ctrl Pts',(13.5725664880948,-30.4866371096201,-15.7992682351403));
#1004=CARTESIAN_POINT('Ctrl Pts',(16.5360060455215,-29.1655479429032,-15.7462285425208));
#1005=CARTESIAN_POINT('Ctrl Pts',(19.3122803300844,-27.4049803333248,-15.6720792839006));
#1006=CARTESIAN_POINT('Ctrl Pts',(21.7769919536982,-25.2599059247329,-15.5580007208081));
#1007=CARTESIAN_POINT('Ctrl Pts',(13.8689642434812,-31.132003755934,-14.512025095306));
#1008=CARTESIAN_POINT('Ctrl Pts',(16.8835690611451,-29.7513395192993,-14.4589347289395));
#1009=CARTESIAN_POINT('Ctrl Pts',(19.6928415374026,-27.9128364743147,-14.3845170419754));
#1010=CARTESIAN_POINT('Ctrl Pts',(22.1581537084401,-25.681019338036,-14.2767675097989));
#1011=CARTESIAN_POINT('Ctrl Pts',(13.725826494317,-30.8203403662481,-12.7125239035343));
#1012=CARTESIAN_POINT('Ctrl Pts',(16.7008883136598,-29.4359222445142,-12.6827669932641));
#1013=CARTESIAN_POINT('Ctrl Pts',(19.4635455856371,-27.5940622500319,-12.6412704176675));
#1014=CARTESIAN_POINT('Ctrl Pts',(21.8723419376255,-25.3652500645645,-12.5823528713689));
#1015=CARTESIAN_POINT('Ctrl Pts',(13.2493364433429,-29.7828467259937,-11.3751306070724));
#1016=CARTESIAN_POINT('Ctrl Pts',(16.1200536196164,-28.446769176981,-11.3677663548821));
#1017=CARTESIAN_POINT('Ctrl Pts',(18.7852203081793,-26.6691131758669,-11.3575459228364));
#1018=CARTESIAN_POINT('Ctrl Pts',(21.1088463445032,-24.5217283017911,-11.3432384068257));
#1019=CARTESIAN_POINT('Ctrl Pts',(12.8186601268047,-28.8451063922697,-11.));
#1020=CARTESIAN_POINT('Ctrl Pts',(15.599396922943,-27.5606683530133,-11.0001432969932));
#1021=CARTESIAN_POINT('Ctrl Pts',(18.1838649666585,-25.8528479951181,-10.9997339175261));
#1022=CARTESIAN_POINT('Ctrl Pts',(20.4448343071362,-23.7881175130609,-11.));
#1023=CARTESIAN_POINT('Ctrl Pts',(12.5298932503843,-28.2163549688354,-11.));
#1024=CARTESIAN_POINT('Ctrl Pts',(15.249971243918,-26.9671038394746,-11.));
#1025=CARTESIAN_POINT('Ctrl Pts',(17.780898092336,-25.3052300720564,-11.));
#1026=CARTESIAN_POINT('Ctrl Pts',(20.,-23.2966576771722,-11.));
#1027=CARTESIAN_POINT('',(19.9999999999828,-26.1102395006878,-16.0992144480156));
#1028=CARTESIAN_POINT('',(19.9999999991928,-23.2966576786335,-11.));
#1029=CARTESIAN_POINT('Ctrl Pts',(20.,-26.1102395006648,-16.0992144480196));
#1030=CARTESIAN_POINT('Ctrl Pts',(20.,-26.4228472459794,-15.8500720799496));
#1031=CARTESIAN_POINT('Ctrl Pts',(20.0000000002274,-26.689808809532,-15.5485372124765));
#1032=CARTESIAN_POINT('Ctrl Pts',(20.0000000002274,-27.0436889556794,-14.9078358649038));
#1033=CARTESIAN_POINT('Ctrl Pts',(20.0000000000104,-27.148158714359,-14.5908179752338));
#1034=CARTESIAN_POINT('Ctrl Pts',(20.0000000000104,-27.2186306478739,-13.947473946872));
#1035=CARTESIAN_POINT('Ctrl Pts',(19.9999999999999,-27.1907634169369,-13.634488775221));
#1036=CARTESIAN_POINT('Ctrl Pts',(19.9999999999999,-27.0119244361537,-13.0134481918428));
#1037=CARTESIAN_POINT('Ctrl Pts',(20.0000000000001,-26.8574865757474,-12.7178538070309));
#1038=CARTESIAN_POINT('Ctrl Pts',(20.0000000000001,-26.4143746524639,-12.1379275425268));
#1039=CARTESIAN_POINT('Ctrl Pts',(20.000000000011,-26.1111616284065,-11.8739435434008));
#1040=CARTESIAN_POINT('Ctrl Pts',(20.000000000011,-25.4173382513841,-11.4404533941426));
#1041=CARTESIAN_POINT('Ctrl Pts',(20.0000000000667,-25.0245771377358,-11.2775271731137));
#1042=CARTESIAN_POINT('Ctrl Pts',(20.0000000000667,-24.1886569542865,-11.0544382874857));
#1043=CARTESIAN_POINT('Ctrl Pts',(20.,-23.7417133342238,-11.));
#1044=CARTESIAN_POINT('Ctrl Pts',(20.,-23.2966576771722,-11.));
#1045=CARTESIAN_POINT('',(12.7142895791111,-28.1309041360178,-11.));
#1046=CARTESIAN_POINT('Ctrl Pts',(20.,-23.2966576771722,-11.));
#1047=CARTESIAN_POINT('Ctrl Pts',(17.8311219796785,-25.2597709999284,-11.));
#1048=CARTESIAN_POINT('Ctrl Pts',(15.3643740658584,-26.8917014385008,-11.));
#1049=CARTESIAN_POINT('Ctrl Pts',(12.714287889545,-28.1309005226871,-11.));
#1050=CARTESIAN_POINT('',(19.9968757147537,-26.1126060243,-16.0993217104096));
#1051=CARTESIAN_POINT('Ctrl Pts',(19.9968757162002,-26.1126060232045,-16.0993217103599));
#1052=CARTESIAN_POINT('Ctrl Pts',(19.3423060388497,-27.2116355349921,-15.6409870879956));
#1053=CARTESIAN_POINT('Ctrl Pts',(18.4933445298928,-28.1800025883934,-15.0465378397741));
#1054=CARTESIAN_POINT('Ctrl Pts',(16.7789028804239,-29.4407743628787,-13.8460728729953));
#1055=CARTESIAN_POINT('Ctrl Pts',(16.0089009666791,-29.7858084097757,-13.3069117285552));
#1056=CARTESIAN_POINT('Ctrl Pts',(14.8264359752197,-30.0088960819568,-12.4789408278663));
#1057=CARTESIAN_POINT('Ctrl Pts',(14.3857247195045,-29.9978942739463,-12.1703514844407));
#1058=CARTESIAN_POINT('Ctrl Pts',(13.7372906784124,-29.819995507724,-11.7163130808362));
#1059=CARTESIAN_POINT('Ctrl Pts',(13.5015417789424,-29.6987622544583,-11.5512399243026));
#1060=CARTESIAN_POINT('Ctrl Pts',(13.1558603831565,-29.40665755942,-11.3091912051545));
#1061=CARTESIAN_POINT('Ctrl Pts',(13.0255182487479,-29.2485358019524,-11.2179246600254));
#1062=CARTESIAN_POINT('Ctrl Pts',(12.8551639442864,-28.9246844390001,-11.098641291875));
#1063=CARTESIAN_POINT('Ctrl Pts',(12.8025553317699,-28.7796273223879,-11.0618043448861));
#1064=CARTESIAN_POINT('Ctrl Pts',(12.7307240143736,-28.4645573983316,-11.0115075149657));
#1065=CARTESIAN_POINT('Ctrl Pts',(12.7142895798129,-28.2983747550416,-11.));
#1066=CARTESIAN_POINT('Ctrl Pts',(12.7142895798129,-28.1309041353616,-11.));
#1067=CARTESIAN_POINT('Ctrl Pts',(19.9968596959067,-26.1125084378603,-16.0994398350838));
#1068=CARTESIAN_POINT('Ctrl Pts',(19.9979011916626,-26.111719763538,-16.0994039660595));
#1069=CARTESIAN_POINT('Ctrl Pts',(19.9989426426716,-26.1109310252712,-16.0993680913655));
#1070=CARTESIAN_POINT('Ctrl Pts',(19.9999840489259,-26.1101422230632,-16.0993322110007));
#1071=CARTESIAN_POINT('Ctrl Pts',(-20.,-24.9799919935929,-16.9999999999996));
#1072=CARTESIAN_POINT('Ctrl Pts',(-1.65007885991421E-12,-31.2001048973805,
-24.8045957639336));
#1073=CARTESIAN_POINT('Ctrl Pts',(20.0000000000008,-24.9799919935936,-17.0000000000005));
#1074=CARTESIAN_POINT('Ctrl Pts',(-20.,-39.3196760227058,-5.5715472827043));
#1075=CARTESIAN_POINT('Ctrl Pts',(-1.6495227567716E-12,-45.5397889264935,
-13.3761430466383));
#1076=CARTESIAN_POINT('Ctrl Pts',(20.0000000000008,-39.3196760227066,-5.57154728270523));
#1077=CARTESIAN_POINT('Origin',(3.67399236284942E-20,-18.6988715146715,
-2.09735859323384));
#1078=CARTESIAN_POINT('Origin',(3.67399236284942E-20,-41.5,16.0747028180573));
#1079=CARTESIAN_POINT('',(-19.9999999999503,-26.1102395007279,-16.0992144480302));
#1080=CARTESIAN_POINT('Ctrl Pts',(-19.9999839928201,-26.1101420418716,-16.0993323778856));
#1081=CARTESIAN_POINT('Ctrl Pts',(-19.9989425865115,-26.1109308438491,-16.0993682584527));
#1082=CARTESIAN_POINT('Ctrl Pts',(-19.9979011354482,-26.1117195818853,-16.0994041333489));
#1083=CARTESIAN_POINT('Ctrl Pts',(-19.9968596396378,-26.1125082559768,-16.0994400025757));
#1084=CARTESIAN_POINT('',(-19.9999999999994,-24.9799919935938,-17.0000000000002));
#1085=CARTESIAN_POINT('',(-20.,-24.9799919935931,-16.9999999999994));
#1086=CARTESIAN_POINT('',(20.0000000000006,-24.9799919935934,-16.9999999999998));
#1087=CARTESIAN_POINT('Origin',(3.67399236284942E-20,-8.88178419700125E-15,
-17.));
#1088=CARTESIAN_POINT('',(20.,-24.9799919935941,-17.0000000000006));
#1089=CARTESIAN_POINT('Ctrl Pts',(-21.4740085007189,-24.9251651107022,-16.0433459028606));
#1090=CARTESIAN_POINT('Ctrl Pts',(-19.021101734003,-27.0167394319206,-16.1458547807879));
#1091=CARTESIAN_POINT('Ctrl Pts',(-16.2741532472161,-28.7308290218279,-16.2103046671591));
#1092=CARTESIAN_POINT('Ctrl Pts',(-13.3497710952089,-30.016429323184,-16.2555639869817));
#1093=CARTESIAN_POINT('Ctrl Pts',(-21.7769919536985,-25.2599059247301,-15.558000720808));
#1094=CARTESIAN_POINT('Ctrl Pts',(-19.3106798042428,-27.4063732942638,-15.6721533638402));
#1095=CARTESIAN_POINT('Ctrl Pts',(-16.5323996494348,-29.1678320356628,-15.7463270251133));
#1096=CARTESIAN_POINT('Ctrl Pts',(-13.5667932610792,-30.489210206001,-15.7993711602519));
#1097=CARTESIAN_POINT('Ctrl Pts',(-22.1581537080744,-25.6810193376289,-14.276767509711));
#1098=CARTESIAN_POINT('Ctrl Pts',(-19.6912406212137,-27.9142857635395,-14.3845870119031));
#1099=CARTESIAN_POINT('Ctrl Pts',(-16.8799200360478,-29.7537240886642,-14.4590322724593));
#1100=CARTESIAN_POINT('Ctrl Pts',(-13.8630912490964,-31.1346927712953,-14.512128521425));
#1101=CARTESIAN_POINT('Ctrl Pts',(-21.872341937405,-25.3652500643179,-12.5823528714944));
#1102=CARTESIAN_POINT('Ctrl Pts',(-19.461981369639,-27.5955095880728,-12.6413086774638));
#1103=CARTESIAN_POINT('Ctrl Pts',(-16.6972994668003,-29.4383108412379,-12.6828213023588));
#1104=CARTESIAN_POINT('Ctrl Pts',(-13.7200306793073,-30.8230365761322,-12.7125818459458));
#1105=CARTESIAN_POINT('Ctrl Pts',(-21.1088463443056,-24.5217283015699,-11.3432384070771));
#1106=CARTESIAN_POINT('Ctrl Pts',(-18.7837113998066,-26.6705076369495,-11.3575552140526));
#1107=CARTESIAN_POINT('Ctrl Pts',(-16.1165912442134,-28.4490737802924,-11.3677797280107));
#1108=CARTESIAN_POINT('Ctrl Pts',(-13.2437435174127,-29.7854491759146,-11.3751449416004));
#1109=CARTESIAN_POINT('Ctrl Pts',(-20.4448343071363,-23.7881175130581,-11.));
#1110=CARTESIAN_POINT('Ctrl Pts',(-18.1823967462703,-25.8541887825983,-10.9997337447384));
#1111=CARTESIAN_POINT('Ctrl Pts',(-15.5960391158232,-27.5628833416445,-11.0001433183767));
#1112=CARTESIAN_POINT('Ctrl Pts',(-12.8132430402768,-28.8476076664206,-11.));
#1113=CARTESIAN_POINT('Ctrl Pts',(-20.,-23.2966576771694,-11.));
#1114=CARTESIAN_POINT('Ctrl Pts',(-17.7794570596752,-25.3065343917937,-11.));
#1115=CARTESIAN_POINT('Ctrl Pts',(-15.2466829767819,-26.9692586602941,-11.));
#1116=CARTESIAN_POINT('Ctrl Pts',(-12.5245939479129,-28.2187881531471,-11.));
#1117=CARTESIAN_POINT('',(-19.9999999991928,-23.2966576786308,-11.));
#1118=CARTESIAN_POINT('Ctrl Pts',(-20.,-23.2966576771694,-11.));
#1119=CARTESIAN_POINT('Ctrl Pts',(-20.,-23.9637469317487,-11.));
#1120=CARTESIAN_POINT('Ctrl Pts',(-20.0000000002803,-24.6097442982937,-11.1221619097025));
#1121=CARTESIAN_POINT('Ctrl Pts',(-20.0000000002803,-25.6570530341445,-11.5566221970039));
#1122=CARTESIAN_POINT('Ctrl Pts',(-20.0000000006192,-26.0649163291208,-11.8253768764958));
#1123=CARTESIAN_POINT('Ctrl Pts',(-20.0000000006192,-26.653867671118,-12.4144119476216));
#1124=CARTESIAN_POINT('Ctrl Pts',(-20.0000000000917,-26.8694775675378,-12.723789996506));
#1125=CARTESIAN_POINT('Ctrl Pts',(-20.0000000000917,-27.135672345316,-13.3697337036032));
#1126=CARTESIAN_POINT('Ctrl Pts',(-20.0000000000006,-27.2002218500771,-13.6877652851473));
#1127=CARTESIAN_POINT('Ctrl Pts',(-20.0000000000006,-27.1970176750776,-14.3246324422321));
#1128=CARTESIAN_POINT('Ctrl Pts',(-20.0000000000001,-27.1339530978775,-14.6311447951056));
#1129=CARTESIAN_POINT('Ctrl Pts',(-20.0000000000001,-26.9234284768273,-15.1477785623895));
#1130=CARTESIAN_POINT('Ctrl Pts',(-20.0000000000001,-26.7991879239088,-15.3597481642104));
#1131=CARTESIAN_POINT('Ctrl Pts',(-20.0000000000001,-26.4933528300391,-15.7572927525502));
#1132=CARTESIAN_POINT('Ctrl Pts',(-20.,-26.3109316474172,-15.9392666621922));
#1133=CARTESIAN_POINT('Ctrl Pts',(-20.,-26.1102395006623,-16.0992144480195));
#1134=CARTESIAN_POINT('Ctrl Pts',(-12.7142877911341,-28.1309003122297,-11.));
#1135=CARTESIAN_POINT('Ctrl Pts',(-15.3643730123184,-26.8916982092533,-11.));
#1136=CARTESIAN_POINT('Ctrl Pts',(-17.8311219722989,-25.2597710066055,-11.));
#1137=CARTESIAN_POINT('Ctrl Pts',(-20.,-23.2966576771694,-11.));
#1138=CARTESIAN_POINT('Origin',(6.93889390390723E-15,3.5,-11.));
#1139=CARTESIAN_POINT('',(20.,24.9799919935936,-11.));
#1140=CARTESIAN_POINT('',(20.,14.2399959967968,-11.));
#1141=CARTESIAN_POINT('',(-20.,24.9799919935936,-11.));
#1142=CARTESIAN_POINT('Origin',(9.45691096529324E-20,5.67323640666765E-25,
-11.));
#1143=CARTESIAN_POINT('',(-20.,-17.75,-11.));
#1144=CARTESIAN_POINT('',(12.7142895798129,22.6,-11.));
#1145=CARTESIAN_POINT('',(6.93889390390723E-15,22.6,-11.));
#1146=CARTESIAN_POINT('',(12.7142895798129,20.002,-11.));
#1147=CARTESIAN_POINT('Origin',(8.88178419700125E-15,3.5,-17.));
#1148=CARTESIAN_POINT('',(-20.,24.9799919935936,-17.));
#1149=CARTESIAN_POINT('',(-20.,-17.75,-17.));
#1150=CARTESIAN_POINT('',(20.,24.9799919935936,-17.));
#1151=CARTESIAN_POINT('Origin',(9.45691096529324E-20,5.67323640666765E-25,
-17.));
#1152=CARTESIAN_POINT('',(20.,14.2399959967968,-17.));
#1153=CARTESIAN_POINT('Origin',(-20.,-39.,-17.));
#1154=CARTESIAN_POINT('',(-20.,24.9799919935936,-17.));
#1155=CARTESIAN_POINT('Origin',(20.,24.9799919935936,-17.));
#1156=CARTESIAN_POINT('',(20.,24.9799919935936,-17.));
#1157=CARTESIAN_POINT('Origin',(9.45691096529324E-20,5.67323640666765E-25,
-17.));
#1158=CARTESIAN_POINT('Origin',(-9.,20.,-0.75));
#1159=CARTESIAN_POINT('',(-9.,20.,9.5));
#1160=CARTESIAN_POINT('',(-9.,20.,-0.75));
#1161=CARTESIAN_POINT('',(-9.,17.,9.5));
#1162=CARTESIAN_POINT('',(-9.,17.,-0.75));
#1163=CARTESIAN_POINT('',(-9.,20.,9.5));
#1164=CARTESIAN_POINT('Origin',(-3.46944695195361E-15,-38.5,8.25));
#1165=CARTESIAN_POINT('',(4.57195978147881,-38.5,-5.29867929661692));
#1166=CARTESIAN_POINT('',(-9.,-38.5,9.5));
#1167=CARTESIAN_POINT('',(-9.,-38.5,-0.75));
#1168=CARTESIAN_POINT('Origin',(-3.46944695195361E-15,-38.5,9.5));
#1169=CARTESIAN_POINT('',(-6.,-38.5,8.5));
#1170=CARTESIAN_POINT('Origin',(-6.,-38.5,9.5));
#1171=CARTESIAN_POINT('',(-2.94139032837705E-15,-38.5,2.5));
#1172=CARTESIAN_POINT('Origin',(-2.81892564846231E-15,-38.5,3.5));
#1173=CARTESIAN_POINT('',(6.,-38.5,8.5));
#1174=CARTESIAN_POINT('Origin',(6.,-38.5,9.5));
#1175=CARTESIAN_POINT('',(-3.59191163186835E-15,-38.5,14.5));
#1176=CARTESIAN_POINT('Origin',(-3.46944695195361E-15,-38.5,15.5));
#1177=CARTESIAN_POINT('',(-3.83684099169782E-15,-38.5,6.5));
#1178=CARTESIAN_POINT('Origin',(-3.46944695195361E-15,-38.5,9.5));
#1179=CARTESIAN_POINT('Origin',(-9.,20.,-0.75));
#1180=CARTESIAN_POINT('',(-9.,-41.5,9.5));
#1181=CARTESIAN_POINT('',(-9.,-41.5,-0.75));
#1182=CARTESIAN_POINT('',(-9.,-41.5,9.5));
#1183=CARTESIAN_POINT('Origin',(-3.46944695195361E-15,20.,9.5));
#1184=CARTESIAN_POINT('',(9.,17.,9.5));
#1185=CARTESIAN_POINT('Origin',(-3.46944695195361E-15,17.,9.5));
#1186=CARTESIAN_POINT('',(9.,20.,9.5));
#1187=CARTESIAN_POINT('',(9.,20.,9.5));
#1188=CARTESIAN_POINT('Origin',(-3.46944695195361E-15,20.,9.5));
#1189=CARTESIAN_POINT('Origin',(9.,20.,-0.75));
#1190=CARTESIAN_POINT('',(9.,17.,-8.39922643712123));
#1191=CARTESIAN_POINT('',(9.,17.,-0.75));
#1192=CARTESIAN_POINT('',(9.,20.,-8.39922643712123));
#1193=CARTESIAN_POINT('',(9.,20.002,-8.39922643712123));
#1194=CARTESIAN_POINT('',(9.,20.,-0.75));
#1195=CARTESIAN_POINT('Origin',(-2.81892564846231E-15,20.,3.5));
#1196=CARTESIAN_POINT('',(-2.81892564846231E-15,20.,4.5));
#1197=CARTESIAN_POINT('Origin',(-2.81892564846231E-15,20.,3.5));
#1198=CARTESIAN_POINT('',(-2.81892564846231E-15,17.,4.5));
#1199=CARTESIAN_POINT('',(-2.94139032837705E-15,20.,4.5));
#1200=CARTESIAN_POINT('Origin',(-2.81892564846231E-15,17.,3.5));
#1201=CARTESIAN_POINT('Origin',(6.,20.,9.5));
#1202=CARTESIAN_POINT('',(6.,20.,10.5));
#1203=CARTESIAN_POINT('Origin',(6.,20.,9.5));
#1204=CARTESIAN_POINT('',(6.,17.,10.5));
#1205=CARTESIAN_POINT('',(6.,20.,10.5));
#1206=CARTESIAN_POINT('Origin',(6.,17.,9.5));
#1207=CARTESIAN_POINT('Origin',(-3.46944695195361E-15,20.,15.5));
#1208=CARTESIAN_POINT('',(-3.46944695195361E-15,20.,16.5));
#1209=CARTESIAN_POINT('Origin',(-3.46944695195361E-15,20.,15.5));
#1210=CARTESIAN_POINT('',(-3.46944695195361E-15,17.,16.5));
#1211=CARTESIAN_POINT('',(-3.59191163186835E-15,20.,16.5));
#1212=CARTESIAN_POINT('Origin',(-3.46944695195361E-15,17.,15.5));
#1213=CARTESIAN_POINT('Origin',(-3.46944695195361E-15,20.,9.5));
#1214=CARTESIAN_POINT('',(-3.46944695195361E-15,20.,12.5));
#1215=CARTESIAN_POINT('Origin',(-3.46944695195361E-15,20.,9.5));
#1216=CARTESIAN_POINT('',(-3.46944695195361E-15,17.,12.5));
#1217=CARTESIAN_POINT('',(-3.83684099169782E-15,20.,12.5));
#1218=CARTESIAN_POINT('Origin',(-3.46944695195361E-15,17.,9.5));
#1219=CARTESIAN_POINT('Origin',(-6.,20.,9.5));
#1220=CARTESIAN_POINT('',(-6.,20.,10.5));
#1221=CARTESIAN_POINT('Origin',(-6.,20.,9.5));
#1222=CARTESIAN_POINT('',(-6.,17.,10.5));
#1223=CARTESIAN_POINT('',(-6.,20.,10.5));
#1224=CARTESIAN_POINT('Origin',(-6.,17.,9.5));
#1225=CARTESIAN_POINT('Origin',(-3.46944695195361E-15,20.,8.25));
#1226=CARTESIAN_POINT('',(9.0011047622834,20.,-8.4));
#1227=CARTESIAN_POINT('',(10.8571447899064,20.,-9.69961321856061));
#1228=CARTESIAN_POINT('',(-3.46944695195361E-15,20.,-8.4));
#1229=CARTESIAN_POINT('Origin',(-3.46944695195361E-15,17.,8.25));
#1230=CARTESIAN_POINT('',(4.57195978147881,17.,-5.29867929661692));
#1231=CARTESIAN_POINT('Origin',(-3.46944695195361E-15,-41.5,9.5));
#1232=CARTESIAN_POINT('Origin',(-3.46944695195361E-15,-41.5,9.5));
#1233=CARTESIAN_POINT('Origin',(-2.81892564846231E-15,-41.5,3.5));
#1234=CARTESIAN_POINT('',(-2.94139032837705E-15,-41.5,2.5));
#1235=CARTESIAN_POINT('Origin',(-2.81892564846231E-15,-41.5,3.5));
#1236=CARTESIAN_POINT('',(-2.94139032837705E-15,-41.5,2.5));
#1237=CARTESIAN_POINT('Origin',(6.,-41.5,9.5));
#1238=CARTESIAN_POINT('',(6.,-41.5,8.5));
#1239=CARTESIAN_POINT('Origin',(6.,-41.5,9.5));
#1240=CARTESIAN_POINT('',(6.,-41.5,8.5));
#1241=CARTESIAN_POINT('Origin',(-3.46944695195361E-15,-41.5,15.5));
#1242=CARTESIAN_POINT('',(-3.59191163186835E-15,-41.5,14.5));
#1243=CARTESIAN_POINT('Origin',(-3.46944695195361E-15,-41.5,15.5));
#1244=CARTESIAN_POINT('',(-3.59191163186835E-15,-41.5,14.5));
#1245=CARTESIAN_POINT('Origin',(-3.46944695195361E-15,-41.5,9.5));
#1246=CARTESIAN_POINT('',(-3.83684099169782E-15,-41.5,6.5));
#1247=CARTESIAN_POINT('Origin',(-3.46944695195361E-15,-41.5,9.5));
#1248=CARTESIAN_POINT('',(-3.83684099169782E-15,-41.5,6.5));
#1249=CARTESIAN_POINT('Origin',(-6.,-41.5,9.5));
#1250=CARTESIAN_POINT('',(-6.,-41.5,8.5));
#1251=CARTESIAN_POINT('Origin',(-6.,-41.5,9.5));
#1252=CARTESIAN_POINT('',(-6.,-41.5,8.5));
#1253=CARTESIAN_POINT('Origin',(-3.46944695195361E-15,-41.5,8.25));
#1254=CARTESIAN_POINT('Origin',(4.57195978147881,-38.502,-5.29867929661692));
#1255=CARTESIAN_POINT('',(4.45642626412389,16.8177818568492,-5.21778185684912));
#1256=CARTESIAN_POINT('Origin',(-3.46944695195361E-15,20.,-8.4));
#1257=UNCERTAINTY_MEASURE_WITH_UNIT(LENGTH_MEASURE(0.01),#1261,
'DISTANCE_ACCURACY_VALUE',
'Maximum model space distance between geometric entities at asserted c
onnectivities');
#1258=UNCERTAINTY_MEASURE_WITH_UNIT(LENGTH_MEASURE(0.01),#1261,
'DISTANCE_ACCURACY_VALUE',
'Maximum model space distance between geometric entities at asserted c
onnectivities');
#1259=(
GEOMETRIC_REPRESENTATION_CONTEXT(3)
GLOBAL_UNCERTAINTY_ASSIGNED_CONTEXT((#1257))
GLOBAL_UNIT_ASSIGNED_CONTEXT((#1261,#1263,#1264))
REPRESENTATION_CONTEXT('','3D')
);
#1260=(
GEOMETRIC_REPRESENTATION_CONTEXT(3)
GLOBAL_UNCERTAINTY_ASSIGNED_CONTEXT((#1258))
GLOBAL_UNIT_ASSIGNED_CONTEXT((#1261,#1263,#1264))
REPRESENTATION_CONTEXT('','3D')
);
#1261=(
LENGTH_UNIT()
NAMED_UNIT(*)
SI_UNIT(.MILLI.,.METRE.)
);
#1262=(
LENGTH_UNIT()
NAMED_UNIT(*)
SI_UNIT($,.METRE.)
);
#1263=(
NAMED_UNIT(*)
PLANE_ANGLE_UNIT()
SI_UNIT($,.RADIAN.)
);
#1264=(
NAMED_UNIT(*)
SI_UNIT($,.STERADIAN.)
SOLID_ANGLE_UNIT()
);
#1265=SHAPE_DEFINITION_REPRESENTATION(#1266,#1267);
#1266=PRODUCT_DEFINITION_SHAPE('',$,#1269);
#1267=SHAPE_REPRESENTATION('',(#683),#1259);
#1268=PRODUCT_DEFINITION_CONTEXT('part definition',#1273,'design');
#1269=PRODUCT_DEFINITION('2026-09-20-18-50-06-824','foot',#1270,#1268);
#1270=PRODUCT_DEFINITION_FORMATION('',$,#1275);
#1271=PRODUCT_RELATED_PRODUCT_CATEGORY('foot','foot',(#1275));
#1272=APPLICATION_PROTOCOL_DEFINITION('international standard',
'automotive_design',2009,#1273);
#1273=APPLICATION_CONTEXT(
'Core Data for Automotive Mechanical Design Process');
#1274=PRODUCT_CONTEXT('part definition',#1273,'mechanical');
#1275=PRODUCT('2026-09-20-18-50-06-824','foot','foot',(#1274));
#1276=PRESENTATION_STYLE_ASSIGNMENT((#1278));
#1277=PRESENTATION_STYLE_ASSIGNMENT((#1279));
#1278=SURFACE_STYLE_USAGE(.BOTH.,#1280);
#1279=SURFACE_STYLE_USAGE(.BOTH.,#1281);
#1280=SURFACE_SIDE_STYLE('',(#1282));
#1281=SURFACE_SIDE_STYLE('',(#1283));
#1282=SURFACE_STYLE_FILL_AREA(#1284);
#1283=SURFACE_STYLE_FILL_AREA(#1285);
#1284=FILL_AREA_STYLE('\X2\92FC\X0\ - \X2\30B530C630F3\X0\',(#1286));
#1285=FILL_AREA_STYLE('Opaque(128,128,128)',(#1287));
#1286=FILL_AREA_STYLE_COLOUR('\X2\92FC\X0\ - \X2\30B530C630F3\X0\',#1288);
#1287=FILL_AREA_STYLE_COLOUR('Opaque(128,128,128)',#1289);
#1288=COLOUR_RGB('\X2\92FC\X0\ - \X2\30B530C630F3\X0\',0.627450980392157,
0.627450980392157,0.627450980392157);
#1289=COLOUR_RGB('Opaque(128,128,128)',0.501960784313725,0.501960784313725,
0.501960784313725);
ENDSEC;
END-ISO-10303-21;
